<?xml version="1.0" encoding="UTF-8"?>
<svg id="Livello_2" xmlns="http://www.w3.org/2000/svg" viewBox="0 0 1052.12 1789.11">
  <defs>
    <style>
      .cls-1 {
        fill: #1d81c4;
        fill-rule: evenodd;
      }

      .cls-2 {
        fill: none;
      }
    </style>
  </defs>
  <g id="Livello_1-2" data-name="Livello_1">
    <g>
      <g>
        <rect class="cls-2" x="940.18" y="1757.99" width="31.2" height="31.11"/>
        <path class="cls-1" d="M940.18,1773.56c0-8.58,6.99-15.56,15.6-15.56s15.6,6.98,15.6,15.56-6.98,15.55-15.6,15.55-15.6-6.97-15.6-15.55Z"/>
      </g>
      <g>
        <rect class="cls-2" x="880.72" y="1757.99" width="31.2" height="31.11"/>
        <path class="cls-1" d="M880.72,1773.56c0-8.58,6.99-15.56,15.6-15.56s15.6,6.98,15.6,15.56-6.98,15.55-15.6,15.55-15.6-6.97-15.6-15.55Z"/>
      </g>
      <g>
        <rect class="cls-2" x="821.27" y="1757.99" width="31.2" height="31.11"/>
        <path class="cls-1" d="M821.27,1773.56c0-8.58,6.99-15.56,15.6-15.56s15.6,6.98,15.6,15.56-6.98,15.55-15.6,15.55-15.6-6.97-15.6-15.55Z"/>
      </g>
      <g>
        <rect class="cls-2" x="761.81" y="1757.99" width="31.2" height="31.11"/>
        <path class="cls-1" d="M761.81,1773.56c0-8.58,6.99-15.56,15.6-15.56s15.6,6.98,15.6,15.56-6.98,15.55-15.6,15.55-15.6-6.97-15.6-15.55Z"/>
      </g>
      <g>
        <rect class="cls-2" x="702.35" y="1757.99" width="31.2" height="31.11"/>
        <path class="cls-1" d="M702.35,1773.56c0-8.58,6.99-15.56,15.6-15.56s15.6,6.98,15.6,15.56-6.98,15.55-15.6,15.55-15.6-6.97-15.6-15.55Z"/>
      </g>
      <g>
        <rect class="cls-2" x="642.89" y="1757.99" width="31.2" height="31.11"/>
        <path class="cls-1" d="M642.89,1773.56c0-8.58,6.99-15.56,15.6-15.56s15.6,6.98,15.6,15.56-6.98,15.55-15.6,15.55-15.6-6.97-15.6-15.55Z"/>
      </g>
      <g>
        <rect class="cls-2" x="583.44" y="1757.99" width="31.2" height="31.11"/>
        <path class="cls-1" d="M583.44,1773.56c0-8.58,6.99-15.56,15.6-15.56s15.6,6.98,15.6,15.56-6.98,15.55-15.6,15.55-15.6-6.97-15.6-15.55Z"/>
      </g>
      <g>
        <rect class="cls-2" x="523.98" y="1757.99" width="31.2" height="31.11"/>
        <path class="cls-1" d="M523.98,1773.56c0-8.58,6.99-15.56,15.6-15.56s15.6,6.98,15.6,15.56-6.98,15.55-15.6,15.55-15.6-6.97-15.6-15.55Z"/>
      </g>
      <g>
        <rect class="cls-2" x="464.52" y="1757.99" width="31.2" height="31.11"/>
        <path class="cls-1" d="M464.52,1773.56c0-8.58,6.99-15.56,15.6-15.56s15.6,6.98,15.6,15.56-6.98,15.55-15.6,15.55-15.6-6.97-15.6-15.55Z"/>
      </g>
      <g>
        <rect class="cls-2" x="405.06" y="1757.99" width="31.2" height="31.11"/>
        <path class="cls-1" d="M405.06,1773.56c0-8.58,6.99-15.56,15.6-15.56s15.6,6.98,15.6,15.56-6.98,15.55-15.6,15.55-15.6-6.97-15.6-15.55Z"/>
      </g>
      <g>
        <rect class="cls-2" x="345.61" y="1757.99" width="31.2" height="31.11"/>
        <path class="cls-1" d="M345.61,1773.56c0-8.58,6.99-15.56,15.6-15.56s15.6,6.98,15.6,15.56-6.98,15.55-15.6,15.55-15.6-6.97-15.6-15.55Z"/>
      </g>
      <g>
        <rect class="cls-2" x="286.15" y="1757.99" width="31.2" height="31.11"/>
        <path class="cls-1" d="M286.15,1773.56c0-8.58,6.99-15.56,15.6-15.56s15.6,6.98,15.6,15.56-6.98,15.55-15.6,15.55-15.6-6.97-15.6-15.55Z"/>
      </g>
      <g>
        <rect class="cls-2" x="226.69" y="1757.99" width="31.2" height="31.11"/>
        <path class="cls-1" d="M226.69,1773.56c0-8.58,6.99-15.56,15.6-15.56s15.6,6.98,15.6,15.56-6.98,15.55-15.6,15.55-15.6-6.97-15.6-15.55Z"/>
      </g>
      <g>
        <rect class="cls-2" x="167.24" y="1757.99" width="31.2" height="31.11"/>
        <path class="cls-1" d="M167.24,1773.56c0-8.58,6.99-15.56,15.6-15.56s15.6,6.98,15.6,15.56-6.98,15.55-15.6,15.55-15.6-6.97-15.6-15.55Z"/>
      </g>
      <g>
        <rect class="cls-2" x="107.78" y="1757.99" width="31.2" height="31.11"/>
        <path class="cls-1" d="M107.78,1773.56c0-8.58,6.99-15.56,15.6-15.56s15.6,6.98,15.6,15.56-6.98,15.55-15.6,15.55-15.6-6.97-15.6-15.55Z"/>
      </g>
      <g>
        <path class="cls-2" d="M79.52,1757.99h-12.92s-.17-.01-.17-.01l-.34-.02-1.35-.08c-1.82.02-3.58-.41-5.36-.64-.87-.24-1.73-.47-2.61-.68l-.66-.16-.63-.24-1.27-.47-10.99,29.11,2.4.87,1.2.43,1.23.33c1.64.44,3.29.86,4.94,1.27,3.35.56,6.71,1.19,10.1,1.26l2.54.12.64.03h.32s.25.01.25.01h12.67v-31.11Z"/>
        <path class="cls-1" d="M48.73,1770.24c.76-2.01,1.89-3.77,3.15-5.29.63-.76,1.3-1.45,1.99-2.08.69-.63,1.42-1.28,2.14-1.81.72-.54,1.45-1.01,2.17-1.4.36-.2.72-.34,1.08-.53.37-.19.73-.36,1.1-.51.73-.29,1.45-.49,2.18-.58.36-.02.73-.1,1.1-.14.37-.04.74-.05,1.11-.03.37.02.74.07,1.1.14.39.07.64.2,1.22.29,1.02.21,1.99.51,2.93.91,1.87.79,3.55,1.93,4.96,3.34,2.82,2.82,4.57,6.71,4.57,11s-1.75,8.18-4.57,10.99c-1.41,1.41-3.09,2.55-4.96,3.34-.93.39-1.91.7-2.93.91-.44.12-1.22.15-1.88.18-.68.02-1.38.02-2.08-.02-.7-.04-1.39-.1-2.07-.19-.68-.09-1.34-.2-1.98-.42-1.28-.4-2.5-.89-3.61-1.46-.56-.29-1.09-.6-1.6-.92-.51-.33-.97-.74-1.42-1.14-.89-.8-1.66-1.66-2.3-2.55-.64-.91-1.17-1.81-1.54-2.81-.37-1.01-.6-2.04-.71-3.07-.22-2.06.09-4.13.85-6.13Z"/>
      </g>
      <g>
        <path class="cls-2" d="M38.6,1744.12c-.52-.74-1.13-1.42-1.61-2.19-.46-.78-.93-1.55-1.41-2.32-.45-.78-.78-1.63-1.2-2.43-.18-.41-.44-.79-.57-1.23l-.45-1.27c-.72-1.66-1.04-3.44-1.53-5.17-.12-.89-.25-1.78-.4-2.67l-.11-.67c-.02-.22-.02-.45-.03-.68l-.06-1.35-31.08,1.45.14,2.54c.03.42.04.85.09,1.27l.18,1.26c.25,1.68.51,3.36.79,5.04.81,3.3,1.57,6.63,2.84,9.78l.89,2.39c.28.8.7,1.54,1.05,2.32.75,1.52,1.44,3.08,2.28,4.55l2.64,4.34c.91,1.43,1.98,2.74,2.98,4.11l24.58-19.07Z"/>
        <path class="cls-1" d="M15.68,1724.87c2.14-.1,4.21.24,6.1.8.95.28,1.85.62,2.69,1.01.87.38,1.74.8,2.52,1.25.78.45,1.5.93,2.14,1.44.33.25.6.52.92.78.32.26.62.53.9.81.56.55,1.02,1.14,1.39,1.77.36.63.8,1.25,1.03,1.96.13.35.23.71.3,1.07.04.18.06.37.09.55.04.18.08.35.12.53.13.72.15,1.47.09,2.26-.03.39-.1.8-.15,1.2-.04.39-.1.79-.17,1.19-.16.81-.4,1.65-.7,2.5-.66,1.74-1.38,3.42-2.48,5.09-1.08,1.66-2.44,3.26-4.13,4.58-1.69,1.32-3.57,2.21-5.6,2.61-2,.39-4.25.34-6.29-.39-1.04-.35-2.08-.83-3.1-1.44-.51-.3-1.01-.64-1.51-1.01-.48-.38-.91-.8-1.36-1.25-.88-.89-1.7-1.9-2.46-3.01-.19-.28-.37-.56-.55-.85-.16-.3-.31-.6-.45-.91-.29-.62-.56-1.26-.8-1.92-.46-1.33-.9-2.64-1.04-3.97-.14-1.34-.17-2.65-.08-3.9.04-.63.12-1.24.21-1.83.1-.59.3-1.19.48-1.75.39-1.13.87-2.18,1.44-3.12.58-.95,1.21-1.79,1.97-2.52.79-.74,1.64-1.36,2.54-1.87,1.81-1.01,3.83-1.55,5.97-1.65Z"/>
      </g>
      <g>
        <rect class="cls-2" x="0" y="1665.42" width="31.11" height="31.2"/>
        <path class="cls-1" d="M15.56,1665.42c8.58,0,15.56,6.99,15.56,15.6s-6.98,15.6-15.56,15.6S0,1689.64,0,1681.02s6.97-15.6,15.55-15.6Z"/>
      </g>
      <g>
        <rect class="cls-2" x="0" y="1605.96" width="31.11" height="31.2"/>
        <path class="cls-1" d="M15.56,1605.96c8.58,0,15.56,6.99,15.56,15.6s-6.98,15.6-15.56,15.6S0,1630.18,0,1621.56s6.97-15.6,15.55-15.6Z"/>
      </g>
      <g>
        <rect class="cls-2" x="0" y="1546.5" width="31.11" height="31.2"/>
        <path class="cls-1" d="M15.56,1546.5c8.58,0,15.56,6.99,15.56,15.6s-6.98,15.6-15.56,15.6S0,1570.72,0,1562.11s6.97-15.6,15.55-15.6Z"/>
      </g>
      <g>
        <rect class="cls-2" x="0" y="1487.05" width="31.11" height="31.2"/>
        <path class="cls-1" d="M15.56,1487.05c8.58,0,15.56,6.99,15.56,15.6s-6.98,15.6-15.56,15.6S0,1511.26,0,1502.65s6.97-15.6,15.55-15.6Z"/>
      </g>
      <g>
        <rect class="cls-2" x="0" y="1427.59" width="31.11" height="31.2"/>
        <path class="cls-1" d="M15.56,1427.59c8.58,0,15.56,6.99,15.56,15.6s-6.98,15.6-15.56,15.6S0,1451.81,0,1443.19s6.97-15.6,15.55-15.6Z"/>
      </g>
      <g>
        <rect class="cls-2" x="0" y="1368.13" width="31.11" height="31.2"/>
        <path class="cls-1" d="M15.56,1368.13c8.58,0,15.56,6.99,15.56,15.6s-6.98,15.6-15.56,15.6S0,1392.35,0,1383.73s6.97-15.6,15.55-15.6Z"/>
      </g>
      <g>
        <rect class="cls-2" x="0" y="1308.67" width="31.11" height="31.2"/>
        <path class="cls-1" d="M15.56,1308.67c8.58,0,15.56,6.99,15.56,15.6s-6.98,15.6-15.56,15.6S0,1332.89,0,1324.28s6.97-15.6,15.55-15.6Z"/>
      </g>
      <g>
        <rect class="cls-2" x="0" y="1249.22" width="31.11" height="31.2"/>
        <path class="cls-1" d="M15.56,1249.22c8.58,0,15.56,6.99,15.56,15.6s-6.98,15.6-15.56,15.6S0,1273.44,0,1264.82s6.97-15.6,15.55-15.6Z"/>
      </g>
      <g>
        <rect class="cls-2" x="0" y="1189.76" width="31.11" height="31.2"/>
        <path class="cls-1" d="M15.56,1189.76c8.58,0,15.56,6.99,15.56,15.6s-6.98,15.6-15.56,15.6S0,1213.98,0,1205.36s6.97-15.6,15.55-15.6Z"/>
      </g>
      <g>
        <rect class="cls-2" x="0" y="1130.3" width="31.11" height="31.2"/>
        <path class="cls-1" d="M15.56,1130.3c8.58,0,15.56,6.99,15.56,15.6s-6.98,15.6-15.56,15.6S0,1154.52,0,1145.91s6.97-15.6,15.55-15.6Z"/>
      </g>
      <g>
        <rect class="cls-2" x="0" y="1070.85" width="31.11" height="31.2"/>
        <path class="cls-1" d="M15.56,1070.85c8.58,0,15.56,6.99,15.56,15.6s-6.98,15.6-15.56,15.6S0,1095.06,0,1086.45s6.97-15.6,15.55-15.6Z"/>
      </g>
      <g>
        <rect class="cls-2" x="0" y="1011.39" width="31.11" height="31.2"/>
        <path class="cls-1" d="M15.56,1011.39c8.58,0,15.56,6.99,15.56,15.6s-6.98,15.6-15.56,15.6S0,1035.61,0,1026.99s6.97-15.6,15.55-15.6Z"/>
      </g>
      <g>
        <rect class="cls-2" x="0" y="951.93" width="31.11" height="31.2"/>
        <path class="cls-1" d="M15.56,951.93c8.58,0,15.56,6.99,15.56,15.6s-6.98,15.6-15.56,15.6S0,976.15,0,967.53s6.97-15.6,15.55-15.6Z"/>
      </g>
      <g>
        <rect class="cls-2" x="0" y="892.47" width="31.11" height="31.2"/>
        <path class="cls-1" d="M15.56,892.47c8.58,0,15.56,6.99,15.56,15.6s-6.98,15.6-15.56,15.6S0,916.69,0,908.08s6.97-15.6,15.55-15.6Z"/>
      </g>
      <g>
        <rect class="cls-2" x="0" y="833.02" width="31.11" height="31.2"/>
        <path class="cls-1" d="M15.56,833.02c8.58,0,15.56,6.99,15.56,15.6s-6.98,15.6-15.56,15.6S0,857.23,0,848.62s6.97-15.6,15.55-15.6Z"/>
      </g>
      <g>
        <rect class="cls-2" x="0" y="773.56" width="31.11" height="31.2"/>
        <path class="cls-1" d="M15.56,773.56c8.58,0,15.56,6.99,15.56,15.6s-6.98,15.6-15.56,15.6S0,797.78,0,789.16s6.97-15.6,15.55-15.6Z"/>
      </g>
      <g>
        <rect class="cls-2" x="0" y="714.1" width="31.11" height="31.2"/>
        <path class="cls-1" d="M15.56,714.1c8.58,0,15.56,6.99,15.56,15.6s-6.98,15.6-15.56,15.6S0,738.32,0,729.7s6.97-15.6,15.55-15.6Z"/>
      </g>
      <g>
        <rect class="cls-2" x="0" y="654.64" width="31.11" height="31.2"/>
        <path class="cls-1" d="M15.56,654.64c8.58,0,15.56,6.99,15.56,15.6s-6.98,15.6-15.56,15.6S0,678.86,0,670.25s6.97-15.6,15.55-15.6Z"/>
      </g>
      <g>
        <rect class="cls-2" x="0" y="595.19" width="31.11" height="31.2"/>
        <path class="cls-1" d="M15.56,595.19c8.58,0,15.56,6.99,15.56,15.6s-6.98,15.6-15.56,15.6S0,619.41,0,610.79s6.97-15.6,15.55-15.6Z"/>
      </g>
      <g>
        <rect class="cls-2" x="0" y="535.73" width="31.11" height="31.2"/>
        <path class="cls-1" d="M15.56,535.73c8.58,0,15.56,6.99,15.56,15.6s-6.98,15.6-15.56,15.6S0,559.95,0,551.33s6.97-15.6,15.55-15.6Z"/>
      </g>
      <g>
        <rect class="cls-2" x="0" y="476.27" width="31.11" height="31.2"/>
        <path class="cls-1" d="M15.56,476.27c8.58,0,15.56,6.99,15.56,15.6s-6.98,15.6-15.56,15.6S0,500.49,0,491.88s6.97-15.6,15.55-15.6Z"/>
      </g>
      <g>
        <rect class="cls-2" x="0" y="416.82" width="31.11" height="31.2"/>
        <path class="cls-1" d="M15.56,416.82c8.58,0,15.56,6.99,15.56,15.6s-6.98,15.6-15.56,15.6S0,441.03,0,432.42s6.97-15.6,15.55-15.6Z"/>
      </g>
      <g>
        <rect class="cls-2" x="0" y="357.36" width="31.11" height="31.2"/>
        <path class="cls-1" d="M15.56,357.36c8.58,0,15.56,6.99,15.56,15.6s-6.98,15.6-15.56,15.6S0,381.58,0,372.96s6.97-15.6,15.55-15.6Z"/>
      </g>
      <g>
        <rect class="cls-2" x="0" y="297.9" width="31.11" height="31.2"/>
        <path class="cls-1" d="M15.56,297.9c8.58,0,15.56,6.99,15.56,15.6s-6.98,15.6-15.56,15.6S0,322.12,0,313.5s6.97-15.6,15.55-15.6Z"/>
      </g>
      <g>
        <rect class="cls-2" x="0" y="238.44" width="31.11" height="31.2"/>
        <path class="cls-1" d="M15.56,238.44c8.58,0,15.56,6.99,15.56,15.6s-6.98,15.6-15.56,15.6S0,262.66,0,254.05s6.97-15.6,15.55-15.6Z"/>
      </g>
      <g>
        <rect class="cls-2" x="0" y="178.99" width="31.11" height="31.2"/>
        <path class="cls-1" d="M15.56,178.99c8.58,0,15.56,6.99,15.56,15.6s-6.98,15.6-15.56,15.6S0,203.2,0,194.59s6.97-15.6,15.55-15.6Z"/>
      </g>
      <g>
        <rect class="cls-2" x="0" y="119.53" width="31.11" height="31.2"/>
        <path class="cls-1" d="M15.56,119.53c8.58,0,15.56,6.99,15.56,15.6s-6.98,15.6-15.56,15.6S0,143.75,0,135.13s6.97-15.6,15.55-15.6Z"/>
      </g>
      <g>
        <path class="cls-2" d="M31.12,91.27v-23.4c-.03-1.48.08-2.14.11-3.09.06-.9.02-1.81.23-2.69L.6,58.11c-.31,1.68-.34,3.37-.44,5.07-.08,1.64-.19,3.58-.15,4.7v23.4h31.11Z"/>
        <path class="cls-1" d="M16.02,60.09c8.26,1.65,15.04,6.41,15.1,15.58,0,8.62-6.98,15.6-15.56,15.6S0,84.29,0,75.67c0-2.15.44-4.21,1.22-6.07.39-.93.88-1.82,1.44-2.65.27-.37.61-.96.94-1.4.34-.47.69-.91,1.07-1.33,1.5-1.66,3.23-2.86,5.15-3.54,1.98-.68,4.08-.86,6.2-.58Z"/>
      </g>
      <g>
        <path class="cls-2" d="M39.1,44.3c2.34-2.78,5.05-5.24,8.05-7.29,3.02-2.02,6.37-3.46,9.8-4.5L48.39,2.6c-6.51,1.92-12.79,4.71-18.43,8.48-5.62,3.78-10.67,8.36-14.99,13.58l24.12,19.65Z"/>
        <path class="cls-1" d="M52.67,17.55c.59,2.06.74,4.14.62,6.08-.1,2.02-.45,3.95-.98,5.64-.56,1.63-1.19,3.28-2.05,4.56-.21.32-.44.62-.68.9-.24.28-.46.61-.72.88-.5.56-1.07,1.03-1.72,1.41-.64.39-1.25.8-1.96,1.04-.35.13-.71.24-1.09.32-.38.08-.76.15-1.13.24-.75.16-1.55.24-2.4.25-.84.01-1.76-.08-2.61-.13-3.48-.33-7.63-1.62-10.93-4.27-3.38-2.72-5.14-6.55-4.83-11.07.05-1.14.33-2.21.71-3.33.38-1.11.89-2.22,1.53-3.32.31-.56.67-1.08,1.09-1.57.41-.5.84-.99,1.31-1.47.94-.94,1.94-1.9,3.13-2.65,1.19-.74,2.42-1.36,3.65-1.86.62-.24,1.22-.49,1.86-.64.64-.15,1.27-.26,1.9-.35,2.51-.35,4.86-.24,7.01.53,2.12.71,3.92,1.85,5.3,3.33,1.41,1.55,2.4,3.4,2.99,5.47Z"/>
      </g>
      <g>
        <rect class="cls-2" x="80.74" width="31.2" height="31.11"/>
        <path class="cls-1" d="M111.94,15.55c0,8.58-6.99,15.56-15.6,15.56s-15.6-6.98-15.6-15.56S87.72,0,96.33,0s15.6,6.97,15.6,15.55Z"/>
      </g>
      <g>
        <rect class="cls-2" x="140.2" width="31.2" height="31.11"/>
        <path class="cls-1" d="M171.4,15.55c0,8.58-6.99,15.56-15.6,15.56s-15.6-6.98-15.6-15.56,6.98-15.55,15.6-15.55,15.6,6.97,15.6,15.55Z"/>
      </g>
      <g>
        <rect class="cls-2" x="199.65" width="31.2" height="31.11"/>
        <path class="cls-1" d="M230.85,15.55c0,8.58-6.99,15.56-15.6,15.56s-15.6-6.98-15.6-15.56,6.98-15.55,15.6-15.55,15.6,6.97,15.6,15.55Z"/>
      </g>
      <g>
        <rect class="cls-2" x="259.11" width="31.2" height="31.11"/>
        <path class="cls-1" d="M290.31,15.55c0,8.58-6.99,15.56-15.6,15.56s-15.6-6.98-15.6-15.56,6.98-15.55,15.6-15.55,15.6,6.97,15.6,15.55Z"/>
      </g>
      <g>
        <rect class="cls-2" x="318.57" width="31.2" height="31.11"/>
        <path class="cls-1" d="M349.77,15.55c0,8.58-6.99,15.56-15.6,15.56s-15.6-6.98-15.6-15.56,6.98-15.55,15.6-15.55,15.6,6.97,15.6,15.55Z"/>
      </g>
      <g>
        <rect class="cls-2" x="378.03" width="31.2" height="31.11"/>
        <path class="cls-1" d="M409.22,15.55c0,8.58-6.99,15.56-15.6,15.56s-15.6-6.98-15.6-15.56,6.98-15.55,15.6-15.55,15.6,6.97,15.6,15.55Z"/>
      </g>
      <g>
        <rect class="cls-2" x="437.48" width="31.2" height="31.11"/>
        <path class="cls-1" d="M468.68,15.55c0,8.58-6.99,15.56-15.6,15.56s-15.6-6.98-15.6-15.56,6.98-15.55,15.6-15.55,15.6,6.97,15.6,15.55Z"/>
      </g>
      <g>
        <rect class="cls-2" x="496.94" width="31.2" height="31.11"/>
        <path class="cls-1" d="M528.14,15.55c0,8.58-6.99,15.56-15.6,15.56s-15.6-6.98-15.6-15.56,6.98-15.55,15.6-15.55,15.6,6.97,15.6,15.55Z"/>
      </g>
      <g>
        <rect class="cls-2" x="556.4" width="31.2" height="31.11"/>
        <path class="cls-1" d="M587.6,15.55c0,8.58-6.99,15.56-15.6,15.56s-15.6-6.98-15.6-15.56,6.98-15.55,15.6-15.55,15.6,6.97,15.6,15.55Z"/>
      </g>
      <g>
        <rect class="cls-2" x="615.85" width="31.2" height="31.11"/>
        <path class="cls-1" d="M647.05,15.55c0,8.58-6.99,15.56-15.6,15.56s-15.6-6.98-15.6-15.56,6.98-15.55,15.6-15.55,15.6,6.97,15.6,15.55Z"/>
      </g>
      <g>
        <rect class="cls-2" x="675.31" width="31.2" height="31.11"/>
        <path class="cls-1" d="M706.51,15.55c0,8.58-6.99,15.56-15.6,15.56s-15.6-6.98-15.6-15.56,6.98-15.55,15.6-15.55,15.6,6.97,15.6,15.55Z"/>
      </g>
      <g>
        <rect class="cls-2" x="734.77" width="31.2" height="31.11"/>
        <path class="cls-1" d="M765.97,15.55c0,8.58-6.99,15.56-15.6,15.56s-15.6-6.98-15.6-15.56,6.98-15.55,15.6-15.55,15.6,6.97,15.6,15.55Z"/>
      </g>
      <g>
        <rect class="cls-2" x="794.23" width="31.2" height="31.11"/>
        <path class="cls-1" d="M825.43,15.55c0,8.58-6.99,15.56-15.6,15.56s-15.6-6.98-15.6-15.56,6.98-15.55,15.6-15.55,15.6,6.97,15.6,15.55Z"/>
      </g>
      <g>
        <rect class="cls-2" x="853.68" width="31.2" height="31.11"/>
        <path class="cls-1" d="M884.88,15.55c0,8.58-6.99,15.56-15.6,15.56s-15.6-6.98-15.6-15.56,6.98-15.55,15.6-15.55,15.6,6.97,15.6,15.55Z"/>
      </g>
      <g>
        <rect class="cls-2" x="913.14" width="31.2" height="31.11"/>
        <path class="cls-1" d="M944.34,15.55c0,8.58-6.99,15.56-15.6,15.56s-15.6-6.98-15.6-15.56,6.98-15.55,15.6-15.55,15.6,6.97,15.6,15.55Z"/>
      </g>
      <g>
        <path class="cls-2" d="M972.6,31.11h12.92s.17.01.17.01l.34.02,1.35.08c1.82-.02,3.58.41,5.36.64.87.24,1.73.47,2.61.68l.66.16.63.24,1.27.47,10.99-29.11-2.4-.87-1.2-.43-1.23-.33c-1.64-.44-3.29-.86-4.94-1.27-3.35-.56-6.71-1.19-10.1-1.26l-2.54-.12-.64-.03h-.32s-.25-.01-.25-.01h-12.67v31.11Z"/>
        <path class="cls-1" d="M1003.39,18.86c-.76,2.01-1.89,3.77-3.15,5.29-.63.76-1.3,1.45-1.99,2.08-.69.63-1.42,1.28-2.14,1.81-.72.54-1.45,1.01-2.17,1.4-.36.2-.72.34-1.08.53-.37.19-.73.36-1.1.51-.73.29-1.45.49-2.18.58-.36.02-.73.1-1.1.14-.37.04-.74.05-1.11.03-.37-.02-.74-.07-1.1-.14-.39-.07-.64-.2-1.22-.29-1.02-.21-1.99-.51-2.93-.91-1.87-.79-3.55-1.93-4.96-3.34-2.82-2.82-4.57-6.71-4.57-11s1.75-8.18,4.57-10.99c1.41-1.41,3.09-2.55,4.96-3.34.93-.39,1.91-.7,2.93-.91.44-.12,1.22-.15,1.88-.18.68-.02,1.38-.02,2.08.02.7.04,1.39.1,2.07.19.68.09,1.34.2,1.98.42,1.28.4,2.5.89,3.61,1.46.56.29,1.09.6,1.6.92.51.33.97.74,1.42,1.14.89.8,1.66,1.66,2.3,2.55.64.91,1.17,1.81,1.54,2.81.37,1.01.6,2.04.71,3.07.22,2.06-.09,4.13-.85,6.13Z"/>
      </g>
      <g>
        <path class="cls-2" d="M1013.52,44.98c.52.74,1.13,1.42,1.61,2.19.46.78.93,1.55,1.41,2.32.45.78.78,1.63,1.2,2.43.18.41.44.79.57,1.23l.45,1.27c.72,1.66,1.04,3.44,1.53,5.17.12.89.25,1.78.4,2.67l.11.67c.02.22.02.45.03.68l.06,1.35,31.08-1.45-.14-2.54c-.03-.42-.04-.85-.09-1.27l-.18-1.26c-.25-1.68-.51-3.36-.79-5.04-.81-3.3-1.57-6.63-2.84-9.78l-.89-2.39c-.28-.8-.7-1.54-1.05-2.32-.75-1.52-1.44-3.08-2.28-4.55l-2.64-4.34c-.91-1.43-1.98-2.74-2.98-4.11l-24.58,19.07Z"/>
        <path class="cls-1" d="M1036.44,64.23c-2.14.1-4.21-.24-6.1-.8-.95-.28-1.85-.62-2.69-1.01-.87-.38-1.74-.8-2.52-1.25-.78-.45-1.5-.93-2.14-1.44-.33-.25-.6-.52-.92-.78-.32-.26-.62-.53-.9-.81-.56-.55-1.02-1.14-1.39-1.77-.36-.63-.8-1.25-1.03-1.96-.13-.35-.23-.71-.3-1.07-.04-.18-.06-.37-.09-.55-.04-.18-.08-.35-.12-.53-.13-.72-.15-1.47-.09-2.26.03-.39.1-.8.15-1.2.04-.39.1-.79.17-1.19.16-.81.4-1.65.7-2.5.66-1.74,1.38-3.42,2.48-5.09,1.08-1.66,2.44-3.26,4.13-4.58,1.69-1.32,3.57-2.21,5.6-2.61,2-.39,4.25-.34,6.29.39,1.04.35,2.08.83,3.1,1.44.51.3,1.01.64,1.51,1.01.48.38.91.8,1.36,1.25.88.89,1.7,1.9,2.46,3.01.19.28.37.56.55.85.16.3.31.6.45.91.29.62.56,1.26.8,1.92.46,1.33.9,2.64,1.04,3.97.14,1.34.17,2.65.08,3.9-.04.63-.12,1.24-.21,1.83-.1.59-.3,1.19-.48,1.75-.39,1.13-.87,2.18-1.44,3.12-.58.95-1.21,1.79-1.97,2.52-.79.74-1.64,1.36-2.54,1.87-1.81,1.01-3.83,1.55-5.97,1.65Z"/>
      </g>
      <g>
        <rect class="cls-2" x="1021" y="92.49" width="31.11" height="31.2"/>
        <path class="cls-1" d="M1036.56,123.69c-8.58,0-15.56-6.99-15.56-15.6s6.98-15.6,15.56-15.6,15.55,6.98,15.55,15.6-6.97,15.6-15.55,15.6Z"/>
      </g>
      <g>
        <rect class="cls-2" x="1021" y="151.95" width="31.11" height="31.2"/>
        <path class="cls-1" d="M1036.56,183.15c-8.58,0-15.56-6.99-15.56-15.6s6.98-15.6,15.56-15.6,15.55,6.98,15.55,15.6-6.97,15.6-15.55,15.6Z"/>
      </g>
      <g>
        <rect class="cls-2" x="1021" y="211.4" width="31.11" height="31.2"/>
        <path class="cls-1" d="M1036.56,242.6c-8.58,0-15.56-6.99-15.56-15.6s6.98-15.6,15.56-15.6,15.55,6.98,15.55,15.6-6.97,15.6-15.55,15.6Z"/>
      </g>
      <g>
        <rect class="cls-2" x="1021" y="270.86" width="31.11" height="31.2"/>
        <path class="cls-1" d="M1036.56,302.06c-8.58,0-15.56-6.99-15.56-15.6s6.98-15.6,15.56-15.6,15.55,6.98,15.55,15.6-6.97,15.6-15.55,15.6Z"/>
      </g>
      <g>
        <rect class="cls-2" x="1021" y="330.32" width="31.11" height="31.2"/>
        <path class="cls-1" d="M1036.56,361.52c-8.58,0-15.56-6.99-15.56-15.6s6.98-15.6,15.56-15.6,15.55,6.98,15.55,15.6-6.97,15.6-15.55,15.6Z"/>
      </g>
      <g>
        <rect class="cls-2" x="1021" y="389.78" width="31.11" height="31.2"/>
        <path class="cls-1" d="M1036.56,420.98c-8.58,0-15.56-6.99-15.56-15.6s6.98-15.6,15.56-15.6,15.55,6.98,15.55,15.6-6.97,15.6-15.55,15.6Z"/>
      </g>
      <g>
        <rect class="cls-2" x="1021" y="449.23" width="31.11" height="31.2"/>
        <path class="cls-1" d="M1036.56,480.43c-8.58,0-15.56-6.99-15.56-15.6s6.98-15.6,15.56-15.6,15.55,6.98,15.55,15.6-6.97,15.6-15.55,15.6Z"/>
      </g>
      <g>
        <rect class="cls-2" x="1021" y="508.69" width="31.11" height="31.2"/>
        <path class="cls-1" d="M1036.56,539.89c-8.58,0-15.56-6.99-15.56-15.6s6.98-15.6,15.56-15.6,15.55,6.98,15.55,15.6-6.97,15.6-15.55,15.6Z"/>
      </g>
      <g>
        <rect class="cls-2" x="1021" y="568.15" width="31.11" height="31.2"/>
        <path class="cls-1" d="M1036.56,599.35c-8.58,0-15.56-6.99-15.56-15.6s6.98-15.6,15.56-15.6,15.55,6.98,15.55,15.6-6.97,15.6-15.55,15.6Z"/>
      </g>
      <g>
        <rect class="cls-2" x="1021" y="627.61" width="31.11" height="31.2"/>
        <path class="cls-1" d="M1036.56,658.8c-8.58,0-15.56-6.99-15.56-15.6s6.98-15.6,15.56-15.6,15.55,6.98,15.55,15.6-6.97,15.6-15.55,15.6Z"/>
      </g>
      <g>
        <rect class="cls-2" x="1021" y="687.06" width="31.11" height="31.2"/>
        <path class="cls-1" d="M1036.56,718.26c-8.58,0-15.56-6.99-15.56-15.6s6.98-15.6,15.56-15.6,15.55,6.98,15.55,15.6-6.97,15.6-15.55,15.6Z"/>
      </g>
      <g>
        <rect class="cls-2" x="1021" y="746.52" width="31.11" height="31.2"/>
        <path class="cls-1" d="M1036.56,777.72c-8.58,0-15.56-6.99-15.56-15.6s6.98-15.6,15.56-15.6,15.55,6.98,15.55,15.6-6.97,15.6-15.55,15.6Z"/>
      </g>
      <g>
        <rect class="cls-2" x="1021" y="805.98" width="31.11" height="31.2"/>
        <path class="cls-1" d="M1036.56,837.18c-8.58,0-15.56-6.99-15.56-15.6s6.98-15.6,15.56-15.6,15.55,6.98,15.55,15.6-6.97,15.6-15.55,15.6Z"/>
      </g>
      <g>
        <rect class="cls-2" x="1021" y="865.43" width="31.11" height="31.2"/>
        <path class="cls-1" d="M1036.56,896.63c-8.58,0-15.56-6.99-15.56-15.6s6.98-15.6,15.56-15.6,15.55,6.98,15.55,15.6-6.97,15.6-15.55,15.6Z"/>
      </g>
      <g>
        <rect class="cls-2" x="1021" y="924.89" width="31.11" height="31.2"/>
        <path class="cls-1" d="M1036.56,956.09c-8.58,0-15.56-6.99-15.56-15.6s6.98-15.6,15.56-15.6,15.55,6.98,15.55,15.6-6.97,15.6-15.55,15.6Z"/>
      </g>
      <g>
        <rect class="cls-2" x="1021" y="984.35" width="31.11" height="31.2"/>
        <path class="cls-1" d="M1036.56,1015.55c-8.58,0-15.56-6.99-15.56-15.6s6.98-15.6,15.56-15.6,15.55,6.98,15.55,15.6-6.97,15.6-15.55,15.6Z"/>
      </g>
      <g>
        <rect class="cls-2" x="1021" y="1043.81" width="31.11" height="31.2"/>
        <path class="cls-1" d="M1036.56,1075.01c-8.58,0-15.56-6.99-15.56-15.6s6.98-15.6,15.56-15.6,15.55,6.98,15.55,15.6-6.97,15.6-15.55,15.6Z"/>
      </g>
      <g>
        <rect class="cls-2" x="1021" y="1103.26" width="31.11" height="31.2"/>
        <path class="cls-1" d="M1036.56,1134.46c-8.58,0-15.56-6.99-15.56-15.6s6.98-15.6,15.56-15.6,15.55,6.98,15.55,15.6-6.97,15.6-15.55,15.6Z"/>
      </g>
      <g>
        <rect class="cls-2" x="1021" y="1162.72" width="31.11" height="31.2"/>
        <path class="cls-1" d="M1036.56,1193.92c-8.58,0-15.56-6.99-15.56-15.6s6.98-15.6,15.56-15.6,15.55,6.98,15.55,15.6-6.97,15.6-15.55,15.6Z"/>
      </g>
      <g>
        <rect class="cls-2" x="1021" y="1222.18" width="31.11" height="31.2"/>
        <path class="cls-1" d="M1036.56,1253.38c-8.58,0-15.56-6.99-15.56-15.6s6.98-15.6,15.56-15.6,15.55,6.98,15.55,15.6-6.97,15.6-15.55,15.6Z"/>
      </g>
      <g>
        <rect class="cls-2" x="1021" y="1281.64" width="31.11" height="31.2"/>
        <path class="cls-1" d="M1036.56,1312.83c-8.58,0-15.56-6.99-15.56-15.6s6.98-15.6,15.56-15.6,15.55,6.98,15.55,15.6-6.97,15.6-15.55,15.6Z"/>
      </g>
      <g>
        <rect class="cls-2" x="1021" y="1341.09" width="31.11" height="31.2"/>
        <path class="cls-1" d="M1036.56,1372.29c-8.58,0-15.56-6.99-15.56-15.6s6.98-15.6,15.56-15.6,15.55,6.98,15.55,15.6-6.97,15.6-15.55,15.6Z"/>
      </g>
      <g>
        <rect class="cls-2" x="1021" y="1400.55" width="31.11" height="31.2"/>
        <path class="cls-1" d="M1036.56,1431.75c-8.58,0-15.56-6.99-15.56-15.6s6.98-15.6,15.56-15.6,15.55,6.98,15.55,15.6-6.97,15.6-15.55,15.6Z"/>
      </g>
      <g>
        <rect class="cls-2" x="1021" y="1460.01" width="31.11" height="31.2"/>
        <path class="cls-1" d="M1036.56,1491.21c-8.58,0-15.56-6.99-15.56-15.6s6.98-15.6,15.56-15.6,15.55,6.98,15.55,15.6-6.97,15.6-15.55,15.6Z"/>
      </g>
      <g>
        <rect class="cls-2" x="1021" y="1519.46" width="31.11" height="31.2"/>
        <path class="cls-1" d="M1036.56,1550.66c-8.58,0-15.56-6.99-15.56-15.6s6.98-15.6,15.56-15.6,15.55,6.98,15.55,15.6-6.97,15.6-15.55,15.6Z"/>
      </g>
      <g>
        <rect class="cls-2" x="1021" y="1578.92" width="31.11" height="31.2"/>
        <path class="cls-1" d="M1036.56,1610.12c-8.58,0-15.56-6.99-15.56-15.6s6.98-15.6,15.56-15.6,15.55,6.98,15.55,15.6-6.97,15.6-15.55,15.6Z"/>
      </g>
      <g>
        <rect class="cls-2" x="1021" y="1638.38" width="31.11" height="31.2"/>
        <path class="cls-1" d="M1036.56,1669.58c-8.58,0-15.56-6.99-15.56-15.6s6.98-15.6,15.56-15.6,15.55,6.98,15.55,15.6-6.97,15.6-15.55,15.6Z"/>
      </g>
      <g>
        <path class="cls-2" d="M1021,1697.84v23.4c.03,1.48-.08,2.14-.11,3.09-.06.9-.02,1.81-.23,2.69l30.86,3.98c.31-1.68.34-3.37.44-5.07.08-1.64.19-3.58.15-4.7v-23.4h-31.11Z"/>
        <path class="cls-1" d="M1036.1,1729.01c-8.26-1.65-15.04-6.41-15.1-15.58,0-8.61,6.98-15.6,15.56-15.6s15.55,6.98,15.55,15.6c0,2.15-.44,4.21-1.22,6.07-.39.93-.88,1.82-1.44,2.65-.27.37-.61.96-.94,1.4-.34.47-.69.91-1.07,1.33-1.5,1.66-3.23,2.86-5.15,3.54-1.98.68-4.08.86-6.2.58Z"/>
      </g>
      <g>
        <path class="cls-2" d="M1013.02,1744.81c-2.34,2.78-5.05,5.24-8.05,7.29-3.02,2.02-6.37,3.46-9.8,4.5l8.56,29.91c6.51-1.92,12.79-4.71,18.43-8.48,5.62-3.78,10.67-8.36,14.99-13.58l-24.12-19.65Z"/>
        <path class="cls-1" d="M999.45,1771.56c-.59-2.06-.74-4.14-.62-6.08.1-2.02.45-3.95.98-5.64.56-1.63,1.19-3.28,2.05-4.56.21-.32.44-.62.68-.9.24-.28.46-.61.72-.88.5-.56,1.07-1.03,1.72-1.41.64-.39,1.25-.8,1.96-1.04.35-.13.71-.24,1.09-.32.38-.08.76-.15,1.13-.24.75-.16,1.55-.24,2.4-.25.84-.01,1.76.08,2.61.13,3.48.33,7.63,1.62,10.93,4.27,3.38,2.72,5.14,6.55,4.83,11.07-.05,1.14-.33,2.21-.71,3.33-.38,1.11-.89,2.22-1.53,3.32-.31.56-.67,1.08-1.09,1.57-.41.5-.84.99-1.31,1.47-.94.94-1.94,1.9-3.13,2.65-1.19.74-2.42,1.36-3.65,1.86-.62.24-1.22.49-1.86.64-.64.15-1.27.26-1.9.35-2.51.35-4.86.24-7.01-.53-2.12-.71-3.92-1.85-5.3-3.32-1.41-1.55-2.4-3.4-2.99-5.47Z"/>
      </g>
    </g>
  </g>
</svg>