<?xml version="1.0" encoding="UTF-8"?>
<svg id="Livello_2" xmlns="http://www.w3.org/2000/svg" viewBox="0 0 44.12 18.29">
  <defs>
    <style>
      .cls-1 {
        fill: #385085;
        stroke: #385085;
        stroke-miterlimit: 10;
        stroke-width: .25px;
      }
    </style>
  </defs>
  <g id="tratteeggio">
    <g>
      <path class="cls-1" d="M30.77,4.38c.44.15.88.27,1.31.44.76.31,1.11.81,1,1.61-.02.15.01.22.1.32.28.31.42.67.42,1.1,0,.78-.22,1.52-.44,2.26-.15.51-.44.94-.96,1.12-.28.1-.31.26-.3.5.05.77-.16,1.45-.78,1.96-.26.22-.53.44-.84.57-.24.1-.27.27-.32.47-.31,1.28-.95,1.87-2.28,1.9-.82.02-1.65-.04-2.47.02-.51.04-1.02-.01-1.53.16-.56.19-1.15.23-1.73.26-.66.04-1.33,0-1.99.05-.79.07-1.6-.01-2.4.07-.54.06-1.08-.08-1.62-.06-.35.02-.69-.04-1.02-.08-1.15-.15-2.27-.45-3.37-.83-.78-.28-1.54-.62-2.39-.68-.12,0-.19-.02-.23.1-.2.62-.55,1.17-.76,1.78-.08.24-.24.49-.53.51-.89.05-1.77.15-2.66.21-1.37.09-2.69-.33-4.05-.27-.35.02-.58-.2-.61-.49-.08-.59-.17-1.19-.19-1.78-.02-.68,0-1.37.03-2.05.05-1.45.22-2.9.14-4.36-.02-.44.02-.88.08-1.3.16-1.26.5-2.49.83-3.72.11-.41.34-.65.72-.8.45-.17.92-.32,1.41-.31,1.46.03,2.91-.06,4.37.05.66.05,1.31.12,1.94.33.23.08.45.14.72.07.56-.15,1.09-.36,1.62-.58,1.59-.66,3.13-1.43,4.83-1.8.82-.18,1.66-.29,2.48-.45.78-.15,1.57-.05,2.36-.11.77-.06,1.54-.12,2.31-.22,1.23-.15,2.47-.24,3.71-.24,1.42,0,2.84,0,4.26,0,.48,0,.95.01,1.43.05,1.65.12,3.31.26,4.97.21.48-.01.97.04,1.45.13.84.15,1.68.29,2.53.37.39.04.8.08,1.14.32.49.35.56.86.52,1.41-.06.73-.53,1.36-1.23,1.52-.38.08-.76.07-1.14.1-.4.04-.81-.02-1.21-.03-1.2-.04-2.41-.02-3.61-.02-.02,0-.04,0-.06,0-.55.12-1.11.09-1.65.04-.92-.09-1.84-.13-2.75-.13-.59,0-1.2.14-1.9.16.17.06.25.1.33.12M8.08,15.38c.05-.13.04-.21-.09-.23-.12-.02-.2-.02-.26.16-.13.34.08.68-.11,1,.2-.08.18-.3.32-.4-.01.06-.01.13-.04.18-.21.42-.44.84-.16,1.34.17-.37.36-.74.52-1.12.12-.26.24-.52.38-.77.04-.07.22-.2.02-.26-.14-.04-.37-.22-.46.08-.05.15-.09.29-.2.41.02-.13.03-.27.08-.39M22.02,13.55c.1.16.17.33.1.52-.1.26-.42.46-.84.4-.04,0-.08-.02-.15.04.4.32.78.63,1.17.93.29.23.59.44.9.65.23.16.5.25.78.24,1.31-.03,2.62-.07,3.93-.07.91,0,1.69-.8,1.76-1.71.01-.16.06-.3-.24-.25-1.08.19-2.18.27-3.27.41-.56.08-.95-.18-1.38-.38-.97-.45-1.77-1.15-2.67-1.71-.56-.35-1.22-.51-1.78-.05-.24.19-.42.43-.35.79.17-.08.2-.26.29-.39.12-.19.3-.3.48-.37.15-.06.32-.09.46.16.17.29.51.48.64.82-.2-.21-.39-.43-.59-.63-.22-.22-.51-.27-.7-.13-.26.19-.44.66-.34.88.18.41,1.03.8,1.46.68.36-.1.41-.38.16-.81.08.05.14-.11.19-.03M22.64,9.53c0,.39.2.59.74.73.25.06.49.14.73.24.2.09.42.12.64.07.31-.07.57-.23.59-.58.02-.32-.09-.65-.44-.86-.16-.1-.37-.13-.49-.3.14.05.27.11.41.16.04-.18-.17-.14-.19-.25.39.12.74.58.77,1.01.03.52-.09.71-.62.94.1.16.28.16.42.22.59.25,1.16.57,1.78.75.57.17,1.13.22,1.7.1.94-.2,1.87-.44,2.81-.66.91-.21,1.37-.78,1.49-1.69.06-.43.17-.84.24-1.27.07-.5-.1-.93-.4-1.32-.12-.16-.17,0-.24.09-.3.4-.61.78-1.09.99-.23.1-.47.16-.71.16-.54,0-1.07.09-1.59.19-.48.09-.96.06-1.45.02-.47-.05-.94-.08-1.42-.13-.82-.09-1.64-.25-2.47-.2-.36.02-.7.1-1,.28-.39.25-.53.64-.44,1.14.16-.26.21-.56.46-.74.13-.09.23-.21.36-.29.17-.1.31.07.47.1-.64,0-1.08.45-1.07,1.09M29,4.05c-.83-.4-1.65-.84-2.53-1.14-.43-.15-.88-.22-1.33-.22-1.28.01-2.56-.06-3.84-.08-1.08-.02-2.16-.13-3.22-.36-.06-.01-.11-.05-.23-.11.19,0,.31,0,.43,0,2.13-.08,4.25-.26,6.38-.2.27,0,.55-.07.88-.04-.2.06-.39,0-.53.16.51.02,1,.05,1.55-.08-.24.21-.5.2-.78.34.3,0,.51.01.72,0,.12,0,.24-.06.35-.1.11-.04.11-.04.21.08.04.04.09.02.14,0,.24-.07.48-.14.78-.23-.21.19-.42.28-.67.43.39,0,.67-.15.99-.23-.09.16-.28.18-.41.38.34-.1.62-.17.97-.27-.35.28-.73.42-1.05.65.44,0,.79-.22,1.19-.35-.13.09-.25.18-.38.27.34.03.62-.17,1.01-.25-.25.18-.44.31-.67.47.35.07.58-.12.88-.23-.06.1-.1.16-.16.25.37-.02.64-.25.98-.37-.1.21-.34.22-.4.43.3.03.49-.21.75-.29-.04.14-.19.18-.21.31.3.03.55-.11.82-.19,0,.13-.16.09-.17.22.19.09.36-.06.55-.08,0,.12-.16.08-.17.2.07.09.19,0,.33.1-1.21.26-2.39.05-3.62.14.36.2.64.41,1.02.25.08-.03.19-.01.28,0,.79,0,1.57-.04,2.36-.12.15-.02.21-.06.24-.22.08-.36.13-.73.14-1.11.03.13.18.12.21.3.06.29.3.07.46.02,0,.13-.17.15-.12.3.22-.03.36-.2.57-.27-.09.1-.18.2-.29.32.27.03.43-.19.65-.21q-.04.16.44.06c0,.1-.09.09-.13.13-.04.04-.13.02-.12.15.31-.04.58-.18.95-.31-.17.13-.27.21-.4.32.31.01.51-.17.76-.22-.02.18-.28.15-.3.34.24.02.39-.2.63-.22-.05.13-.24.11-.25.27.74-.22,1.51-.04,2.27-.09-.13.21-.02.2.14.15.08-.03.17-.05.28-.09-.05.12-.11.16-.21.17-1.1.11-2.21.08-3.31.05-.6-.02-1.21-.06-1.81-.05-.14,0-.26.02-.34.13-.01.07.03.07.05.07.71-.02,1.41.07,2.12.08.45,0,.91.06,1.37.04.72-.03,1.44-.13,2.17-.12.21,0,.23-.17.26-.33.03-.21.08-.4.37-.34-.01.01-.02.02-.03.04-.05.09-.29.01-.2.19.04.09.16-.06.26-.06.12,0,.21-.14.36-.11-.17.15-.36.22-.55.26-.17.04-.2.17-.2.27,0,.14.14.07.23.08,1.1.14,2.2.04,3.3.05.18,0,.39-.02.58-.08.61-.18,1.01-.87.87-1.51-.17-.8-.26-.87-1.1-.95-1.1-.11-2.17-.36-3.27-.46-.35-.03-.7-.04-1.05-.05-.66-.02-1.33-.04-1.99-.09-3.22-.23-6.45-.18-9.67-.17-.88,0-1.77.09-2.65.23-.51.08-1.03.09-1.54.14-.92.08-1.84.08-2.76.14-.93.06-1.84.32-2.75.5-1.55.31-2.95,1-4.38,1.61-.78.33-1.57.67-2.4.85-.25.05-.51.07-.77.09-.41.02-.94.51-.97.9-.01.16.2.11.19.27-.1.03-.16-.11-.31-.08.1.11.18.22.27.32-.06.08-.15-.1-.2.02-.03.07.04.11.08.15.14.13.29.26.48.42-.3-.07-.47-.27-.69-.39.23.5.71.74,1.13,1.05-.43-.13-.79-.4-1.19-.62.38.5.88.87,1.37,1.25-.47-.18-.87-.51-1.31-.74.54.81,1.39,1.23,2.17,1.75-.81-.24-1.5-.67-2.2-1.27.21.6.68.83,1.07,1.13.41.31.9.5,1.34.76-.78-.18-1.49-.53-2.19-.92.75.72,1.7,1.1,2.61,1.55-.9-.16-1.72-.56-2.54-.94.98.77,2.12,1.23,3.29,1.63-1.17-.12-2.24-.56-3.28-1.1,1.07.83,2.25,1.38,3.58,1.59-1.35.02-2.49-.61-3.65-1.23.24.46.85.78,2.89,1.5-1.12-.05-1.99-.64-2.94-1.04.64.72,1.52,1.01,2.38,1.34-1.05-.1-1.92-.61-2.77-1.19.53.81,1.35,1.2,2.3,1.52-.54-.04-.96-.2-1.4-.34.27.24.56.45.93.54.52.12,1.04.13,1.57.13.53,0,1.06.04,1.59.04.97,0,1.94-.05,2.89-.25,1.24-.26,2.36-.78,3.35-1.56.78-.61,1.44-1.33,1.98-2.17.04-.06.06-.13.1-.19.05-.09,0-.14-.06-.18-.09-.05-.09.05-.13.09-.16.17-.22.42-.46.56.04-.24.22-.38.32-.57.12-.23.12-.23-.14-.27-.02,0-.03,0-.04,0,.21-.22-.21-.28-.08-.56.1.13.19.24.26.35.24.35.59.39.96.32.51-.1,1.03-.05,1.55-.1.61-.06,1.2-.14,1.8-.24.25-.04.51-.04.75-.15.15-.07.24-.14.16-.33-.07-.17-.03-.35.01-.53.06.14.17.25.1.41-.11.25.04.36.24.44.44.19.91.25,1.37.31.53.08,1.06.14,1.59.21.99.12,1.95.04,2.81-.53.43-.29.63-.85.46-1.26-.09-.23-.22-.42-.52-.36-.09.02-.19,0-.28,0,.11-.11.26,0,.41-.08-.08-.19-.27-.24-.42-.29-.8-.27-1.63-.43-2.37-.85-.08-.05-.2-.02-.3-.03,0-.12-.07-.16-.16-.2M8.63,3.63c-1.31-.17-2.63-.1-3.95-.14-.8-.02-1.57.03-2.36.17-.59.11-.74.45-.84.95-.17.88-.4,1.76-.59,2.64-.09.42-.14.85-.16,1.28-.06,1.31-.09,2.61-.14,3.92-.02.54-.03,1.09-.08,1.64-.06.55.06,1.11.09,1.67.03.38.06.76.07,1.15.02.52.05.58.57.56.76-.03,1.49.14,2.24.23.63.07,1.28.05,1.93-.01.63-.06,1.25-.17,1.88-.15.22,0,.3-.02.24-.3-.18-.93-.35-1.86-.42-2.8-.08-1.13-.07-2.27-.03-3.4.03-.97.15-1.95.28-2.92.12-.91.24-1.81.58-2.67.15-.38.29-.76.54-1.1.2-.27.44-.39.76-.39.16,0,.3-.06.53-.1-.41-.14-.78-.18-1.14-.23M17.28,12.26c-.67-.17-6.05-.07-6.32.09.07.1.23-.03.31.14-.6.06-1.16-.09-1.74-.12.44.2.9.28,1.42.36-.63.09-1.18-.08-1.75-.17.19.17.45.19.71.31-.36,0-.64-.11-.94-.16.3.29.72.34,1.16.55-.57-.06-1.03-.21-1.5-.35.27.29.63.4.97.56-.22.03-.22.04-.57-.08-.18-.06-.36-.13-.56-.16.38.37.9.47,1.37.7-.65-.01-1.26-.18-1.83-.5.11.24.33.37.57.46.24.09.47.18.7.29-.53,0-1.02-.16-1.51-.36,0,.22.15.27.3.32.56.21,1.13.34,1.71.5l-1.52-.18s-.01.05-.02.08c.66.33,1.43.31,2.11.58-.4,0-.77-.1-1.16-.17-.56-.1-1.13-.21-1.69-.31-.08-.02-.22-.16-.24.03,0,.09.01.28.2.3.22.03.44.11.66.11,1.46.03,2.79.54,4.14,1.02.92.33,1.88.51,2.85.63.98.12,1.97.16,2.95.11.8-.04,1.61-.03,2.38-.29.08-.03.16-.03.23-.16-.87.14-1.71.18-2.56.11.65-.14,1.33-.15,1.98-.38-.92.08-1.83.15-2.74-.04.05-.14.18-.1.27-.1.49,0,.98.01,1.47,0,.74-.03,1.45-.23,2.15-.46-1.33.27-2.67.26-4.01.11,1.21.01,2.39-.18,3.56-.49-.98.1-1.95.32-2.94.13.6-.06,1.19-.12,1.76-.32h-2.32s0-.01,0-.02c.54-.08,1.09-.15,1.63-.22,0-.04,0-.08,0-.12-.67.11-1.33.05-2-.03.64-.12,1.3-.04,1.93-.25-.74.08-1.48-.04-2.23-.04.65-.16,1.33-.14,1.97-.33-.77,0-1.53,0-2.3-.12.79-.08,1.57-.16,2.36-.23-.95-.02-1.91.1-2.86-.14.58-.02,1.17-.04,1.73-.17,0-.03,0-.06,0-.09h-2.27s0-.04,0-.07c.46-.04.92-.07,1.38-.11-.72-.02-1.44-.02-2.17-.13.78-.14,1.56-.1,2.31-.29h-2.36s0-.05,0-.08c.93-.07,1.86-.15,2.87-.22M22.17,12.45c.09.25.34.27.51.37.8.5,1.56,1.07,2.43,1.45.32.14.62.21.98.13.37-.08.76-.02,1.15-.07.71-.08,1.42-.1,2.13-.14.22-.01.42-.09.61-.2.68-.4,1.34-.83,1.52-1.68.06-.28.11-.56.1-.86,0-.22-.1-.28-.3-.2-.64.25-1.3.45-1.95.64-1.19.36-2.31.2-3.4-.35-1.09-.55-2.22-1.01-3.37-1.43-.57-.21-1.16-.24-1.74.04-.22.11-.35.26-.43.55.53-.38,1.04-.54,1.6-.14-.26.06-.48.02-.71-.07-.28-.11-.73.22-.83.55-.14.46-.07.63.39.82.37.15.71.36,1.11.46.29.07.52,0,.81-.16-.15.26-.37.26-.59.26"/>
      <path class="cls-1" d="M16.07,10.73c.8-.21,1.48-.54,2.09-1.03-.56.18-1.09.46-1.65.64-.57.18-1.15.27-1.73.39.05.23.25.1.4.2-.58.07-1.11.14-1.65.21-.07,0-.19-.04-.19.1,0,.11.11.08.17.08,1.43.01,2.84-.12,4.14-.81.04-.02.07-.04.11-.06.06-.02.14-.06.11-.13-.04-.1-.11-.05-.18,0-.41.23-.86.33-1.31.44-.08.02-.16.03-.31-.01"/>
      <path class="cls-1" d="M11.9,11.66c1.42.44,4.08.04,5.09-.63-1.65.62-3.39.4-5.09.63"/>
      <path class="cls-1" d="M40.25,3.21c.25-.18.43-.31.61-.44-.01-.02-.03-.04-.04-.07-.3.13-.6.27-.9.4-.19.08-.38.15-.57.23-.07.03-.13.08-.11.17.03.1.12.07.18.06.37-.03.75,0,1.12-.01.28,0,.58.09.85-.06.03-.01.06-.04.08-.03.4.17.52-.15.73-.43-.28.07-.53-.02-.76.16.03-.06.06-.12.14-.26-.32.19-.55.39-.89.4.17-.18.4-.25.52-.48-.31.07-.55.31-.95.38"/>
      <path class="cls-1" d="M27.08,6.88c.1.02.08.14.16.18.04.03.1.11.11.1.19-.12.31.03.47.08.12.04.03-.16.12-.2q.22.18.44.19c-.32-.32-.6-.64-.77-1.02-.13.03-.03.16-.14.21-.1-.25-.2-.51-.3-.76-.02,0-.04,0-.06,0,.04.25.07.49.12.81-.26-.38-.27-.79-.48-1.12.03.33.06.66.09.98.02.21.12.38.24.55"/>
      <path class="cls-1" d="M13.66,3.76c-1.22.4-2.46.76-3.38,1.76-.09.09-.21.2-.11.31.09.11.22-.01.29-.08.92-.83,1.98-1.42,3.13-1.87.04-.01.07-.03.1-.05,0-.02-.02-.05-.03-.07"/>
      <path class="cls-1" d="M16.63,9.42c-.74.09-1.47.2-2.2.16-.51-.03-1.02-.11-1.53-.17-.06,0-.12-.01-.19,0-.07,0-.16-.03-.19.06-.04.13.09.11.15.14.39.15.79.22,1.2.23.87.02,1.73,0,2.58-.25.07-.02.14-.03.17-.15"/>
      <path class="cls-1" d="M14.8,3.16c-1.38.07-2.62.52-3.71,1.37,1.24-.45,2.4-1.12,3.71-1.37"/>
      <path class="cls-1" d="M15.23,9.33c-1.29-.16-2.55-.41-3.77-.86,0,0-.04.04-.08.1,1.2.74,2.51.83,3.85.76"/>
      <path class="cls-1" d="M21.51,7.19c.14,0,.24.11.37.14.14.03.27.2.43,0,.06-.08.18.02.26.05.14.04.28.08.5,0-.54-.34-1.13-.44-1.6-.87,0,.23.18.27.22.43-.33-.15-.54-.43-.82-.67-.04.31.29.37.28.6.09.14.24.21.36.3"/>
      <path class="cls-1" d="M20.58,2.84c-1.13-.39-3.64-.53-3.88-.22,1.32-.04,2.59.21,3.88.22"/>
      <path class="cls-1" d="M18.55,9.11c-.81.48-1.72.71-2.58,1.03-.08.03-.22.05-.19.16.05.17.17.02.25.02.98-.11,1.78-.6,2.52-1.21"/>
      <path class="cls-1" d="M19.12,2.99c-.71-.12-1.41-.32-2.15-.19-.29.05-.59.02-.88.13-.07.03-.2-.03-.19.1.01.14.15.09.22.08.35-.03.7-.04,1.05-.07.54-.06,1.07-.08,1.6,0,.11.02.23.03.34-.06"/>
      <path class="cls-1" d="M15.87,2.46c-.48-.03-.95.05-1.41.17-.48.12-.95.25-1.39.48-.06.03-.17.04-.13.13.04.11.16.08.25.05.45-.14.9-.29,1.35-.42.45-.14.9-.27,1.34-.4"/>
      <path class="cls-1" d="M27.08,6.88c-.12-.17-.22-.34-.24-.55-.19-.21-.1-.53-.31-.78,0,.32,0,.59.05.85-.16-.21-.18-.45-.22-.72-.14.33-.04,1.06.16,1.28.05.05.1.16.19.04.05-.07.1-.07.13.01.04.08.11.15.2.1.08-.05.04-.15.04-.23"/>
      <path class="cls-1" d="M21.51,7.19c-.13-.09-.28-.16-.36-.3-.29-.27-.58-.55-.92-.87.04.32.23.48.36.66.2.27.43.52.75.67.19.08.24.03.17-.16"/>
      <path class="cls-1" d="M31.72,5.57c-.23.06-.38.23-.54.39-.36.36-.66.41-1.13.18-.06-.03-.13-.05-.2-.07.51.47.84.47,1.39.08.22-.16.35-.36.48-.58"/>
      <path class="cls-1" d="M25.77,2.95c-.3.18-.56.39-.66.72-.04.13-.19.36-.04.42.18.08.17-.2.25-.3.17-.22.28-.48.48-.68.03-.03.09-.07.03-.12-.02-.02-.05-.03-.07-.04"/>
      <path class="cls-1" d="M24.74,3.87c.32-.35.51-.7.79-.98-.58.16-.83.46-.79.98"/>
      <path class="cls-1" d="M29.34,5.69c-.31-.31-.48-.67-.44-1.11-.26.49-.16.85.44,1.11"/>
      <path class="cls-1" d="M23.43,7.21c-.33-.2-.66-.24-.94-.47.11.35.51.54.94.47"/>
      <path class="cls-1" d="M6.41,15.17c.08-.14-.03-.32.07-.45.23.02.05.3.25.32.07-.12-.03-.28.09-.41.18.48.06.97.17,1.43.07.29.17.57.19.87.02.2-.05.27-.26.27-.42-.01-.84.01-1.26.1-.42.09-.85.2-1.29.14-.57-.08-1.15-.13-1.72-.19-.47-.05-.93-.05-1.4-.06-.18,0-.33-.06-.35-.29-.03-.24-.1-.48-.1-.73-.04-1.32.06-2.64.07-3.96,0-.54.04-1.08.06-1.62,0-.12.06-.22.13-.35.15.66.1,1.31.16,1.94-.02-.5.09-.98.16-1.47.17.88.05,1.78.14,2.67.06-.58.09-1.16.23-1.73.05.99.15,1.98.14,2.97.04-.03.05-.06.05-.09,0-.73-.02-1.45.06-2.18.01-.09-.03-.24.08-.24.14,0,.09.15.1.25,0,.4,0,.79,0,1.19.02.46.05.93.08,1.39.05-.62.05-1.24.2-1.85.1.01.08.07.08.1-.01.81.04,1.61.12,2.42.05.45.27.76.63,1,.25.17.59-.04.58-.33-.01-.25-.02-.5.06-.74.02-.08,0-.19.1-.2.13-.01.04.14.11.19.47-.96,1.54-1.3,2.27-.37M5.22,15.07c.1.12-.13.13-.14.25.13,0,.25-.08.38-.03.06.13-.16.08-.11.21.31-.18.12.28.32.26-.18.2.06.2.14.24.22.13.39.26.19.55.45-.46.41-1.07-.08-1.48-.35-.29-.83-.28-1.08.04.14.05.27-.2.38-.05M1.13,13.89s.02,0,.03,0v-1.38s-.02.02-.03.03v1.36Z"/>
      <path class="cls-1" d="M7.72,4.22c-.19.07-.21.25-.26.39-.4,1.14-.7,2.31-.84,3.52-.11,1.03-.19,2.06-.18,3.1,0,.06,0,.12,0,.19,0,.07,0,.15.11.15.12,0,.13-.07.13-.16.04-.62.07-1.24.13-1.85.17-1.68.39-3.34.84-4.97.03-.12,0-.24.07-.36"/>
      <path class="cls-1" d="M6.23,12.43c.06-2.32.08-4.64.71-6.89-.8.9-1.35,6.21-.71,6.89"/>
      <path class="cls-1" d="M4.51,8.21c-.19.03-.18.13-.2.22-.08.7-.18,1.41-.24,2.11-.09,1.05-.08,2.1-.07,3.15,0,.09.02.18.12.18.1,0,.13-.1.12-.18-.04-.42.08-.82.06-1.24-.03-.8.08-1.6.07-2.4,0-.61.08-1.21.13-1.84"/>
      <path class="cls-1" d="M3.56,12.56c0,.51.04,1.01.12,1.51.02.1-.01.25.13.24.16-.01.13-.17.11-.28-.1-.71-.06-1.43-.06-2.14,0-.87.14-1.72.2-2.59,0-.05.08-.12-.02-.14-.09-.02-.09.04-.11.11-.14.78-.29,1.55-.32,2.34-.01.32-.05.64-.05.96"/>
      <path class="cls-1" d="M1.27,8.99c.29-1.61.46-3.23.78-4.86-.41.31-1.09,4.14-.78,4.86"/>
      <path class="cls-1" d="M5.97,7.09c-.32,1.04-.45,2.1-.41,3.19,0,.16,0,.31,0,.47,0,.09-.03.2.13.19.13,0,.11-.1.11-.18,0-.19,0-.38,0-.56.03-.95.08-1.89.24-2.83.01-.09,0-.18,0-.27-.03,0-.05,0-.08,0"/>
      <path class="cls-1" d="M2.39,4.02c-.15,0-.14.14-.16.22-.27.94-.43,1.9-.41,2.89,0,.08-.08.24.1.23.14,0,.12-.14.13-.24.09-.98.16-1.96.37-2.93.01-.06.02-.12-.03-.17"/>
      <path class="cls-1" d="M2.76,4c-.18.35-.23.74-.32,1.11-.01.05-.01.11.05.13.08.02.11-.02.12-.09.09-.38.19-.75.15-1.14"/>
      <path class="cls-1" d="M28.73,9.48c-.2.65-.51,1.23-.81,1.83-.04.07-.14.17-.03.25.11.07.17-.02.24-.11.44-.58.63-1.24.6-1.97"/>
      <path class="cls-1" d="M32.83,8.3c-.17.69-.31,1.35-.63,1.96-.04.08-.07.18,0,.23.1.06.16-.03.21-.12.25-.46.44-.93.43-1.46,0-.19.16-.38-.01-.6"/>
      <path class="cls-1" d="M31.62,10.55c0,.09-.06.2.04.25.12.07.15-.08.19-.15.31-.46.52-.96.68-1.48-.02-.01-.05-.03-.07-.04-.28.47-.56.95-.85,1.42h0Z"/>
      <path class="cls-1" d="M28.84,11.02c0-.29.2-.56.08-.94-.19.5-.34.95-.61,1.33-.03.04-.04.11.02.14.08.04.16.04.23-.04.08-.1.15-.21.23-.32.02-.06.04-.11.06-.17"/>
      <path class="cls-1" d="M25.65,10.58c.04-.21.09-.42.12-.63.01-.08.03-.2-.07-.21-.11-.02-.09.1-.11.17-.05.18-.09.38-.19.54-.04.07-.09.14-.03.23.07.1.15-.02.22,0,.02-.04.04-.07.06-.11"/>
      <path class="cls-1" d="M28.84,11.02c-.02.06-.04.11-.06.17.02.06-.03.15.07.18.07.02.13-.01.15-.07.11-.28.26-.56.18-.92-.23.18-.15.49-.35.64"/>
      <path class="cls-1" d="M31.61,10.56c-.05-.16.1-.28.09-.46-.21.16-.28.41-.45.57-.02.02-.01.08,0,.11.03.05.1.04.14,0,.08-.07.15-.16.23-.24,0,0,0,0,0,0"/>
      <path class="cls-1" d="M29.43,10.55c-.18.19-.15.42-.26.59-.02.04,0,.1.06.11.06,0,.09-.03.11-.08.08-.18.15-.36.09-.62"/>
      <path class="cls-1" d="M25.65,10.58s-.04.07-.06.11c.11.16.17.17.24.05.05-.08.06-.24.02-.4-.12.04-.09.2-.2.24"/>
      <path class="cls-1" d="M31.29,12.08c-.32.35-.47.73-.8,1-.02-.18.18-.25.14-.45-.24.13-.33.36-.48.53-.04.05-.1.28-.2.02-.02-.07-.1-.03-.12.02-.07.19-.27.25-.39.38-.05.05-.14.25-.19-.02-.01-.07-.19.02-.24.1-.07.08-.27.11-.19.23.08.12.28.18.41.11.15-.08.25-.19.44-.09.12.06.18-.25.35-.13.11.08.19.01.25-.03.48-.41.85-.89,1.03-1.51,0-.02,0-.05,0-.15"/>
      <path class="cls-1" d="M20.52,11.34c-.03.17.09.27.21.34.4.23.83.41,1.28.52.13.03.24-.03.36-.06.11-.03.19-.1.19-.21,0-.14-.13-.12-.22-.16-.46-.17-.91-.36-1.36-.55-.2-.08-.04-.2-.01-.3.01-.05.06-.1,0-.13-.03-.01-.09,0-.12.01-.16.14-.34.28-.33.55"/>
      <path class="cls-1" d="M26.9,13.34c0-.24.22-.42.17-.69-.22.11-.25.35-.38.5-.22.25-.41.53-.68.74-.08.06-.23.15-.14.27.09.12.24.01.33-.05.17-.12.27-.31.46-.41.08-.12.16-.24.24-.36"/>
      <path class="cls-1" d="M26.9,13.34c-.08.12-.16.24-.24.36,0,.08-.04.14-.09.19-.04.04-.05.1-.02.14.03.06.48.08.52.03.14-.15.17-.35.25-.52.01-.02,0-.06,0-.09-.03-.08-.27.03-.15-.17.05-.09.07-.18.04-.3-.18.07-.14.32-.32.36"/>
      <path class="cls-1" d="M23.08,12.52c0-.18.14-.32.12-.5,0-.04-.01-.07-.04-.18-.11.26-.22.45-.36.62-.05.06-.14.13-.06.21.07.08.15-.02.22-.03.04-.04.08-.08.11-.11"/>
      <path class="cls-1" d="M23.08,12.52s-.08.08-.11.11c-.01.28.22.23.37.23.06,0,.16-.18.09-.2-.22-.06-.07-.21-.1-.35-.1.09-.17.15-.24.21"/>
      <path class="cls-1" d="M22.55,11.3c.12.18.33.29.37.59.04-.41-.1-.6-.37-.59"/>
      <path class="cls-1" d="M25.26,14.82c-.37.37-.74.74-1.11,1.12-.04.04-.07.08-.03.13.03.04.07.09.13.05.12-.08.24-.18.36.01.12-.12.3,0,.42-.09.13-.1.25-.23.1-.41-.02-.02.02-.09.06-.2-.14.11-.23.18-.38.31.16-.35.41-.56.51-.86l-.06-.06Z"/>
      <path class="cls-1" d="M27.41,15.89c0,.1,0,.24.13.17.28-.16.65,0,.87-.3.17-.1.26-.27.36-.42-.03-.06.08-.14,0-.18-.07-.04-.09.05-.13.09-.12.12-.21.33-.45.16-.07-.05-.14.06-.2.12-.12.12-.23.23-.41.25-.04.06-.1.1-.18.11"/>
      <path class="cls-1" d="M28.78,15.34c-.11.15-.2.32-.36.43-.03.24-.02.26.12.21.34-.11.87-.94.84-1.35-.21.24-.31.56-.59.71"/>
      <path class="cls-1" d="M22.1,14.68c.08-.15.26-.24.21-.48-.22.12-.37.33-.59.43-.08.04-.11.15.04.19.14.04.27.1.4.15.11.04.21.08.3-.03.11-.14-.18-.19-.08-.32-.11-.08-.13.06-.2.08-.02,0-.04,0-.08-.02"/>
      <path class="cls-1" d="M27.41,15.89c.07-.01.13-.05.18-.11.02-.05.06-.1.04-.14-.04-.1-.1-.02-.14,0-.14.06-.27.14-.41.19-.07.02-.12.05-.09.12.02.08.1.07.15.05.1-.03.19-.08.28-.12"/>
      <path class="cls-1" d="M23.06,8.99c-.32.31-.35.46-.16.75.03.04.06.12.09.12.49-.03.81.37,1.24.47.37.09.65.02.86-.3.03-.04.07-.08.03-.13-.03-.04-.07-.07-.13-.05-.4.11-.74-.11-1.06-.28-.2-.1-.39-.15-.59-.11-.28.06-.38.01-.26-.28.02-.04,0-.1-.01-.19"/>
      <path class="cls-1" d="M31.37,5.5c-.22-.11-.36-.01-.51.07-.16.09-.31.1-.44-.06-.22-.28-.65-.27-.85-.6-.04-.07-.13-.12-.16-.19-.05-.09-.1-.19-.2-.13-.1.05-.06.17-.05.25.08.31.2.61.5.78.25.14.44.36.72.46.15.06.25.04.36-.07.17-.19.37-.35.63-.51"/>
      <path class="cls-1" d="M21.34,14.2h.18c.11,0,.22,0,.23-.14,0-.14-.15-.14-.2-.14-.35,0-.52-.35-.84-.41-.16-.03-.03-.17,0-.25.02-.06.1-.12,0-.19-.08-.05-.1.03-.15.06-.28.17-.33.47-.07.69.24.21.5.44.85.38"/>
    </g>
  </g>
</svg>