<?xml version="1.0" encoding="UTF-8"?>
<svg id="Livello_2" xmlns="http://www.w3.org/2000/svg" viewBox="0 0 1054.37 168.39">
  <defs>
    <style>
      .cls-1 {
        fill: #fff;
      }

      .cls-1, .cls-2, .cls-3 {
        stroke: #575756;
        stroke-width: 2px;
      }

      .cls-2 {
        fill: #878787;
      }

      .cls-3 {
        fill: #b2b2b2;
      }

      .cls-4 {
        fill: #754c24;
      }
    </style>
  </defs>
  <g id="Livello_1-2" data-name="Livello_1">
    <g>
      <path class="cls-3" d="M887.94,2.79c63.92,12.18,89.4,48.73,149.83,68.48-13.31,22.7-20.52,32.55-53.41,29.19-55.59-19.97-56.12-29.47-115.3-42.46,7.55-22.09,11.33-33.13,18.88-55.22Z"/>
      <path class="cls-1" d="M985.4,119.23c-34.56-9.15-20.85-4.97-55.72-11.8,51.47-12.51,55.03-28.9,108.15-36.25,7.22,23.08,10.28,34.61,15.33,57.56-54.71,10.94-46.5,22.95-96.09,38.69,17.88-17.47,9.65-31.1,28.32-48.2Z"/>
      <path class="cls-2" d="M887.94,2.79c22.69,21.86,33.28,33,52.97,55.55-27.51,21.98-40.67,33.24-65.73,56.25-9.71-6.97-72.82-28.14-82.93-34.94,14.78-37.88,80.44-39.08,95.69-76.86Z"/>
      <path class="cls-3" d="M169.55,1.75C105.64,13.92,77.02,48.4,16.59,68.15c13.32,22.7,46.63,35.68,66.97,31.28,55.59-19.97,45.71-29.47,104.89-42.46-7.55-22.09-11.35-33.13-18.9-55.22Z"/>
      <path class="cls-1" d="M71.05,122.36c34.56-9.15,20.76-8.1,55.63-14.93-51.47-12.51-57.04-32.03-110.16-39.38-7.22,23.08-10.27,34.61-15.33,57.56,54.71,10.94,49.61,26.08,99.21,41.82-17.88-17.47-10.68-27.97-29.36-45.07Z"/>
      <path class="cls-2" d="M169.55,1.75c-22.69,21.86-33.29,33-52.97,55.55,27.51,21.98,40.67,33.24,65.73,56.25,9.71-6.97,14.65-10.42,24.77-17.21C278.41,31.65,184.8,39.53,169.55,1.75Z"/>
      <path class="cls-1" d="M116.58,57.3c238.27-51.56,586.06-50.52,824.33,1.04-14.73,34.31-22.1,71.27-36.83,105.59-214.12-45.96-536.54-47-750.66-1.04-14.74-34.31-22.1-71.28-36.83-105.59Z"/>
    </g>
    <g>
      <path class="cls-4" d="M191.85,113.42c-3.06,5.25-6.83,8.25-11.31,9.01-5.18.88-9.77-.3-13.73-3.55-3.94-3.24-6.25-7.74-6.9-13.49-.46-4.08.16-7.97,1.88-11.67.61-1.3,1.48-2.8,2.62-4.51,1.14-1.71,2.57-3.62,4.3-5.75.76-.94,1.51-1.86,2.26-2.78.74-.91,1.51-1.84,2.31-2.78,1.53-1.83,2.87-2.84,4.02-3.04.51-.09.96.02,1.22.3.24.26.48.58.71.84.23.26.47.52.7.77,1.12,1.17,2.9,1.55,5.34,1.15,1.12-.18,2.04-.63,2.75-1.34.72-.71,1.3-1.1,1.74-1.17.58-.09.9.21.97.92.12,1.17-1.11,2.89-3.66,5.05-2.56,2.17-4.79,3.4-6.58,3.7-.68.11-2.01.03-3.9-.3-1.88-.33-3.13-.48-3.71-.39-1.39.24-2.81,1.85-4.28,4.81-1.54,3.11-2.18,5.94-1.9,8.48.66,5.96,2.59,10.65,5.72,14.1,3.15,3.47,6.59,4.91,10.34,4.28,2.18-.37,4.07-1.77,5.59-4.18,1.44-2.28,2.02-4.64,1.78-6.97-.21-2-.77-3.51-1.68-4.53-.91-1.02-2.02-1.42-3.33-1.2-2.46.41-3.72,1.76-3.74,4-.02,2.19-.56,4.39-1.66,6.52-1.01,1.95-1.95,3-2.79,3.15-.67.11-1.03-.1-1.09-.64-.06-.58.01-1.47.22-2.65.21-1.18.26-2.31.14-3.4-.04-.37-.16-.96-.34-1.75-.19-.8-.49-1.79-.83-2.95-.7-2.38-1.09-4.37-1.25-5.83-.19-1.71.22-3.63,1.13-5.73,1-2.3,2.14-3.61,3.46-3.83.68-.11,1.04.1,1.1.64.03.29-.08.7-.33,1.23-.25.53-.36.96-.33,1.3.15,1.42.49,3.09,1.05,4.98.58,1.97,1.04,3.18,1.36,3.59.44-.41,1.83-2.13,4.14-5.15,2.11-2.75,3.42-4.19,3.93-4.27.51-.08.88.18,1.11.77.33.87,1.29,2.48,2.86,4.81,1.29,1.91,2.02,3.64,2.18,5.18.47,4.59-.74,9.34-3.6,14.26Z"/>
      <path class="cls-4" d="M221.39,113.23c-.61,1.62-1.14,2.52-1.64,2.6-.94.14-2.15-.4-3.62-1.61-1.51-1.25-2.37-1.86-2.57-1.83-.13.02-.38.44-.74,1.26-.22.5-.45.96-.68,1.38-.23.42-.47.75-.72,1-.8.84-1.79,1.36-2.96,1.54-1.1.17-2.12.08-3.04-.29-.92-.36-1.74-.94-2.47-1.74-.73-.8-1.32-1.79-1.78-2.99-.46-1.2-.77-2.55-.92-4.05-.27-2.67-.14-4.94.39-6.8.11-.57.74-1.97,1.74-4.15.74-1.61,2.33-3.52,4.78-5.64,2.24-1.94,3.8-3,4.68-3.14.54-.08,1.68.57,3.42,1.96,1.74,1.39,2.64,2.42,2.71,3.09.03.33-.01.84-.14,1.51-.12.68-.17,1.22-.13,1.64.33,3.48.5,5.22.83,8.71.1,1,.74,1.72,1.88,2.07,1.13.35,1.74.55,1.74.63.15,1.59-.14,3.23-.76,4.88ZM212.02,97.56c-.09-.96-.49-1.7-1.19-2.23-.7-.53-1.49-.72-2.37-.59-1.28.2-2.35,1.62-3.17,4.24-.73,2.35-.97,4.69-.74,6.98.18,1.79.86,3.18,2.05,4.16,1.19.98,2.63,1.34,4.34,1.07,1.14-.18,1.81-.79,2.02-1.84.1-.4.08-1.3-.06-2.72-.35-3.63-.53-5.45-.88-9.08Z"/>
      <path class="cls-4" d="M233.53,111.77c-1.11,1.56-2.06,2.39-2.73,2.49-.74.11-1.88-.36-3.44-1.4-1.81-1.21-2.77-2.43-2.89-3.64-.02-.17-.03-.48-.04-.95,0-.46-.02-1.12-.03-1.96s-.03-1.58-.05-2.22c-.03-.63-.06-1.18-.1-1.64-.16-1.67-.31-3.56-.45-5.68-.15-2.12-.27-4.46-.37-7.03-.11-2.61-.23-4.94-.37-7-.14-2.05-.28-3.85-.43-5.4-.04-.42-.34-.96-.92-1.58-.55-.59-.88-1.16-.93-1.7-.05-.5.19-.97.72-1.41.53-.44,1.06-.89,1.6-1.35,1.57-1.59,2.39-2.38,2.46-2.39.88-.13,1.62.32,2.21,1.33.59,1.02.97,2.38,1.07,4.04.09,1.58.14,3.18.18,4.74.04,1.56.1,3.13.17,4.67.14,3.18.24,5.86.35,7.98.11,2.12.21,3.71.31,4.75.05.54.07,1.83.05,3.87-.02,1.99.02,3.53.12,4.62.03.38.14.76.31,1.16.17.4.38.75.63,1.05.25.3.52.54.81.71.29.17.55.24.78.2.23-.03.52-.15.86-.35.34-.2.63-.31.86-.35.54-.08.84.32.92,1.2.05.5-.5,1.61-1.64,3.22Z"/>
      <path class="cls-4" d="M239.72,109.81c-2.01-1.98-3.18-4.8-3.51-8.39-.36-3.97.61-7.9,2.94-11.71,2.06-3.38,4.19-5.22,6.28-5.5.51-.07,1.16.54,1.95,1.83,1.42,2.22,2.19,3.43,2.31,3.62.53.61,1.07,1.23,1.62,1.88.55.65.84,1.14.87,1.47.06.75-1.23,2.59-3.82,5.53-2.6,2.96-3.87,4.8-3.81,5.47.05.63,1.06,1.12,2.98,1.49,1.76.34,3.03.48,3.8.37.37-.05.89-.35,1.45-.89.56-.55.96-.89,1.2-.92.38.84.6,1.63.66,2.39.13,1.51-.83,2.88-2.86,4.06-1.63.95-3.18,1.51-4.58,1.7-2.95.4-5.46-.39-7.49-2.39ZM245.96,94.6c-.25-.35-.51-.69-.78-1.03-1.19-1.91-2.14-2.81-2.85-2.72-.74.1-1.36.83-1.86,2.16-.49,1.29-.68,2.74-.54,4.33.11,1.25.39,2.33.85,3.21.45.89.9,1.3,1.33,1.24.47-.07,1.33-.93,2.53-2.57,1.22-1.67,1.8-2.85,1.74-3.48-.04-.42-.18-.8-.43-1.15Z"/>
      <path class="cls-4" d="M275.17,99.67c-.11.31-.36.81-.75,1.49-.39.68-.91,1.59-1.57,2.73-.42.73-.83,1.44-1.23,2.15-.4.71-.81,1.42-1.23,2.15-.79,1.11-1.62,1.73-2.49,1.84-2.61.33-5.15-.97-7.59-3.9-2.3-2.77-3.6-5.91-3.89-9.38-.28-3.39.83-7.1,3.38-11.03,2.27-3.51,4.21-5.36,5.69-5.55,1.59-.2,3.46.62,5.58,2.47,2.9,2.54,4.54,6.39,4.93,11.5.16,2.05-.12,3.9-.84,5.55ZM268.13,89.27c-2.14-1.66-3.86-2.43-5.14-2.26-.41.05-.78.27-1.12.65-.34.38-.63.9-.87,1.54-.24.64-.41,1.37-.51,2.19-.1.82-.12,1.66-.05,2.54.21,2.59,1.24,4.78,3.08,6.51,1.82,1.71,3.93,2.41,6.28,2.12.87-.11,1.53-.76,1.98-1.96.45-1.2.6-2.67.46-4.43-.21-2.64-1.59-4.94-4.12-6.9Z"/>
      <path class="cls-4" d="M289.76,79.3c-.42,1.34-1.04,2.08-1.89,2.18-.97.11-1.46.17-2.43.29-.57.07-.82.67-.74,1.8.36,4.82.54,7.23.9,12.06.09,1.21.35,2.31.8,3.26.51,1.07,1.15,1.57,1.89,1.49.27-.03.59-.18.96-.46.37-.27.67-.43.91-.45.57-.07.89.38.96,1.35.03.46-.58,1.55-1.74,3.24-1.23,1.79-2.23,2.8-3.03,2.89-1.88.22-3.39-.75-4.48-2.89-.92-1.81-1.49-4.26-1.72-7.27-.7-9.19-1.05-13.79-1.76-22.98-.03-.42-.34-.96-.84-1.61-.54-.71-.82-1.34-.86-1.8-.05-.63.29-1.54,1.02-2.72.76-1.23,1.53-1.9,2.32-1.99.47-.06.7-.08,1.17-.14.48-.06,1.01.56,1.58,1.84.58,1.31.9,2.45.97,3.37.08,1.08.12,1.62.2,2.7.14,1.88.82,2.75,2.04,2.61.51-.06,1.16-.52,1.85-1.36.69-.84,1.11-1.33,1.28-1.35.58-.07.92.68,1.03,2.22.1,1.38-.05,2.63-.39,3.72Z"/>
      <path class="cls-4" d="M303.56,77.75c-.43,1.33-1.05,2.08-1.89,2.17-.97.11-1.46.16-2.43.27-.58.06-.82.66-.74,1.79.34,4.83.51,7.24.85,12.06.09,1.22.34,2.32.79,3.27.5,1.08,1.14,1.58,1.88,1.5.27-.03.59-.18.96-.45.37-.27.67-.42.91-.45.57-.06.89.39.96,1.35.03.46-.59,1.54-1.76,3.23-1.23,1.79-2.24,2.78-3.05,2.87-1.88.21-3.39-.77-4.47-2.92-.92-1.82-1.48-4.27-1.69-7.28-.66-9.2-1-13.8-1.66-22.99-.03-.42-.34-.96-.84-1.61-.54-.71-.82-1.34-.85-1.8-.05-.63.3-1.53,1.04-2.72.76-1.23,1.54-1.89,2.32-1.97.47-.05.7-.08,1.17-.13.48-.05,1.01.57,1.57,1.85.58,1.32.89,2.45.96,3.38.08,1.08.11,1.62.19,2.7.13,1.89.81,2.76,2.03,2.62.51-.06,1.16-.51,1.85-1.34.69-.84,1.12-1.33,1.29-1.34.58-.06.92.68,1.02,2.23.09,1.38-.06,2.63-.41,3.72Z"/>
      <path class="cls-4" d="M327.89,100.05c-.66,1.59-1.22,2.46-1.72,2.51-.94.09-2.13-.51-3.56-1.8-1.47-1.33-2.31-1.98-2.51-1.96-.14.01-.4.42-.78,1.22-.24.49-.48.94-.73,1.34-.24.41-.49.73-.75.96-.83.8-1.83,1.27-3,1.39-1.11.12-2.11-.03-3.02-.44-.91-.41-1.71-1.03-2.41-1.86-.7-.83-1.26-1.86-1.68-3.08-.42-1.22-.68-2.58-.79-4.09-.18-2.68.02-4.94.61-6.78.13-.56.8-1.93,1.87-4.06.79-1.57,2.44-3.4,4.95-5.39,2.3-1.83,3.89-2.81,4.77-2.89.54-.05,1.66.65,3.35,2.13,1.69,1.48,2.56,2.55,2.6,3.22.02.34-.04.84-.19,1.51-.14.67-.2,1.21-.18,1.63.22,3.5.33,5.24.55,8.74.06,1.01.68,1.75,1.81,2.16,1.12.41,1.71.63,1.72.72.1,1.59-.25,3.22-.92,4.83ZM319.03,83.91c-.06-.96-.43-1.73-1.12-2.29-.68-.56-1.46-.8-2.34-.71-1.29.13-2.4,1.5-3.3,4.08-.8,2.31-1.12,4.63-.96,6.94.12,1.8.76,3.22,1.91,4.26s2.59,1.47,4.3,1.29c1.14-.12,1.83-.69,2.07-1.73.11-.39.12-1.3.03-2.72-.23-3.65-.35-5.47-.59-9.12Z"/>
      <path class="cls-4" d="M360.09,57.32c-1,1.18-2.14,1.82-3.33,1.92-.48.04-1.22-.12-2.13-.52-.9-.39-1.5-.63-1.77-.61-.75.06-1.07,1-.98,2.8.14,2.62.21,3.93.35,6.54.4.43.92.62,1.56.56.85-.07,1.55-.34,2.1-.81.55-.47,1.07-.72,1.54-.76.37-.03.58.44.64,1.4.04.84-.19,2.02-.58,3.46-.39,1.43-.7,2.21-1.01,2.23-.37.03-.75.02-1.12-.03-.38-.05-.89-.05-1.53,0-.64.05-.92.88-.84,2.47.5,9.31.75,13.97,1.26,23.29.03.59.08,1.26.16,2.01.07.75.17,1.61.29,2.57.12.96.21,1.79.29,2.5.07.71.12,1.34.15,1.88.02.29-.72.96-2.16,2.02-1.49,1.09-2.35,1.66-2.58,1.68-.6.05-.92-.17-.95-.68-1.05-16.39-2.1-32.78-3.15-49.17-.01-.25-.06-.56-.13-.94-.07-.37-.12-.83-.15-1.38-.05-.84.43-1.43,1.33-1.82,1.31-.57,2.32-1.28,2.87-1.96.42-.52.84-1.12,1.27-1.72.43-.61.84-1.16,1.25-1.66.4-.5.78-.91,1.14-1.23.36-.32.67-.5.95-.52.54-.05,1.22.32,2.01,1.1.79.78,1.34,1.15,1.65,1.13.1,0,.25-.04.46-.1.2-.06.42-.13.66-.21.23-.08.46-.16.68-.24.22-.08.38-.13.48-.13.44-.04.69.47.74,1.52.05,1.05-.42,2.22-1.42,3.4Z"/>
      <path class="cls-4" d="M380.93,95.15c-1.4,1.74-2.29,2.63-2.66,2.66-.61.04-1.59-.69-2.79-2.19-1.19-1.5-2.07-2.31-2.64-2.26-.57.04-1.61.99-3.1,2.83-1.5,1.84-2.51,2.79-3.05,2.83-.94.07-2.29-.62-4.05-2.01-1.35-1.07-2.12-2.69-2.23-4.87-.26-4.91-.38-7.36-.64-12.27-.04-.84-.48-1.58-1.19-2.24-.72-.66-1.08-1.17-1.09-1.43-.02-.38.14-.77.47-1.18.34-.41.72-.8,1.04-1.16.42-.48.85-1.06,1.32-1.56.47-.5.95-.77,1.46-.81.95-.08,1.79.68,2.56,2.2.77,1.53,1.23,3.13,1.31,4.76.23,4.56.34,6.84.57,11.39.04.84.38,1.51,1.01,2.01.63.5,1.25.72,1.86.68.61-.05,1.34-.61,2.15-1.68.8-1.05,1.16-2.17,1.11-3.31-.28-5.79-.42-8.69-.7-14.48-.07-1.43,1.07-2.23,3.4-2.41,1.69-.13,2.57.46,2.63,1.76.02.38-.01.86-.08,1.46-.07.6-.1,1.08-.09,1.46.21,4.61.32,6.91.54,11.52.13,2.73.85,4.04,2.16,3.95.34-.02.71-.11,1.13-.27.42-.16.77-.25,1.08-.27.37-.03.58.38.61,1.22.03.67-.67,1.9-2.11,3.69Z"/>
      <path class="cls-4" d="M410.95,93.88c-1.19,1.46-2.18,2.21-2.85,2.25-.74.04-1.86-.52-3.35-1.69-1.74-1.37-2.63-2.66-2.68-3.88,0-.17,0-.48.01-.95.01-.46.04-1.12.08-1.96.03-.84.06-1.58.06-2.21,0-.63,0-1.18-.01-1.64-.07-1.68-.11-3.58-.15-5.71s-.03-4.47,0-7.04c.03-2.61.04-4.95,0-7.01-.03-2.06-.07-3.87-.13-5.42-.02-.42-.29-.99-.83-1.65-.52-.64-.82-1.23-.84-1.78-.02-.5.24-.95.79-1.34.55-.39,1.1-.79,1.67-1.21,1.65-1.45,2.51-2.17,2.58-2.18.89-.05,1.6.45,2.13,1.52.53,1.06.83,2.46.84,4.12,0,1.58-.04,3.18-.08,4.74-.04,1.56-.06,3.13-.08,4.68-.04,3.19-.08,5.87-.08,7.99,0,2.13.01,3.72.05,4.76.02.55-.03,1.84-.16,3.86-.13,1.99-.17,3.53-.13,4.62.01.38.1.77.25,1.19.15.41.34.78.57,1.1.23.32.49.58.76.78.28.19.53.28.77.27.24-.01.53-.1.88-.27.35-.17.64-.26.88-.27.54-.03.82.39.86,1.28.02.5-.58,1.57-1.81,3.07Z"/>
      <path class="cls-4" d="M435.17,92.3c-.71,1.55-1.29,2.4-1.8,2.42-.94.04-2.11-.61-3.5-1.98-1.43-1.4-2.24-2.1-2.44-2.09-.14,0-.41.4-.82,1.18-.25.48-.51.91-.77,1.3-.26.39-.52.7-.78.92-.85.76-1.87,1.17-3.04,1.23-1.11.06-2.11-.14-3-.6-.89-.46-1.67-1.12-2.34-1.99-.67-.87-1.2-1.92-1.58-3.16-.38-1.24-.6-2.62-.65-4.13-.1-2.69.18-4.94.83-6.74.15-.55.86-1.89,2-3.96.84-1.53,2.55-3.27,5.12-5.14,2.35-1.71,3.97-2.6,4.86-2.65.54-.03,1.64.74,3.28,2.3,1.64,1.56,2.47,2.68,2.49,3.35.01.34-.07.83-.24,1.49-.17.66-.24,1.2-.23,1.62.11,3.5.16,5.26.26,8.76.03,1.01.62,1.78,1.74,2.25,1.1.46,1.69.72,1.69.81.05,1.6-.35,3.21-1.07,4.78ZM426.85,75.72c-.03-.97-.38-1.75-1.04-2.35-.66-.6-1.44-.87-2.32-.83-1.29.07-2.45,1.38-3.43,3.91-.88,2.26-1.27,4.57-1.19,6.88.06,1.81.65,3.26,1.77,4.36,1.12,1.1,2.53,1.6,4.25,1.51,1.14-.06,1.85-.6,2.12-1.62.12-.39.16-1.29.12-2.72-.12-3.66-.17-5.48-.29-9.14Z"/>
      <path class="cls-4" d="M471.18,90.92c-2.07,1.43-4.17,2.17-6.22,2.23-2.49.08-4.68-1.12-6.6-3.56-1.89-2.41-2.91-5.41-2.99-8.98-.05-2.19.68-4.66,2.22-7.4,1.2-2.14,2.7-4.18,4.5-6.02,1.61-1.65,2.7-2.49,3.21-2.5.47-.02,1.15.43,2.01,1.33.87.9,1.67,1.35,2.42,1.32.24,0,.53-.05.86-.12.34-.07.68-.15,1.01-.22.34-.07.67-.15.99-.22.32-.07.58-.11.79-.12.27,0,.37.46.43,1.26.08,1.16-.46,2.43-1.82,3.48-1.32,1.02-2.82,1.54-4.34,1.59-.91.03-1.92-.18-2.91-.67-.98-.48-1.69-.77-2.1-.76-.68.02-1.25.55-1.72,1.58-.47,1.03-.69,2.24-.66,3.64.06,2.79.92,5.23,2.59,7.15,1.67,1.93,3.7,2.86,5.93,2.79,1.55-.05,2.8-.6,3.77-1.56.99-1,1.61-1.5,1.75-1.5.27,0,.41.43.43,1.31.04,2.29-1.15,4.3-3.53,5.95Z"/>
      <path class="cls-4" d="M493.53,92.17c-1.24,3.05-2.8,5.83-4.69,8.29-1.63,2.13-2.73,3.21-3.23,3.22-.57.01-.86-.3-.87-.93,0-.38.55-1.34,1.62-2.88,1.35-1.94,2.38-3.9,3.1-5.81,1.07-3.05,1.58-6.61,1.53-10.69-.04-3.45-.54-6.16-1.5-8.14-.96-1.98-2.25-2.95-3.87-2.91-1.76.04-2.62,1.59-2.57,4.66,0,.34,0,.77,0,1.29,0,.53-.03,1.17-.05,1.93-.02.76-.04,1.41-.05,1.96,0,.55-.01.99,0,1.33.01.8.17,1.53.49,2.2.31.67.69,1.06,1.13,1.17.47.12.95.25,1.42.41.47.16.71.47.72.93,0,.29-.49,1.08-1.48,2.37-1.09,1.41-1.97,2.13-2.65,2.14-.57.01-1.56-.58-2.96-1.76-1.36-1.14-2.05-1.88-2.06-2.22-.08-4.62-.05-11.29.13-19.94.09-4.33.17-7.7.22-10.1.05-2.4.07-3.83.06-4.29,0-.34-.18-.86-.54-1.56-.35-.71-.53-1.27-.54-1.69,0-.46.51-1.04,1.4-1.74.94-.73,1.85-1.31,2.74-1.58-.1.04.17.06.82.04.34,0,.73.66,1.16,1.99.43,1.34.65,2.72.67,4.15.02,1.56-.08,4.03-.2,7.32-.06,1.62-.08,3.01-.12,4.1-.03,1.1-.05,1.94-.04,2.52.01,1.01.24,1.51.68,1.5.51-.01,1.4-.71,2.62-2.08,1.24-1.39,2.14-2.13,2.72-2.14,1.73-.04,3.28,1.71,4.59,5.21,1.23,3.28,1.85,6.8,1.89,10.5.04,3.62-.73,7.35-2.3,11.21Z"/>
      <path class="cls-4" d="M507.51,91.2c-1.34,1.36-2.36,2.05-3.06,2.06-.47,0-1.36-.57-2.64-1.73-1.6-1.44-2.4-2.89-2.42-4.32,0-.04.01-.2.05-.47.03-.27.08-.71.14-1.3.06-.67.12-1.37.18-2.08.06-.72.13-1.5.18-2.34.07-1.2.09-2.55.11-3.98.02-1.43.02-2.97,0-4.61,0-.17-.38-.3-.97-.49-.58-.19-.92-.7-.93-1.37,0-.8,1.47-2.32,4.43-4.55.41,0,.8.16,1.17.49.38.33.71.8,1,1.41.29.6.53,1.3.7,2.07.18.78.27,1.61.27,2.49,0,.38-.09,1.92-.27,4.61-.19,2.86-.26,4.66-.26,5.37,0,1.62.02,2.71.13,3.22.28,1.09.91,1.63,1.88,1.62.24,0,.54-.09.91-.26.37-.17.64-.26.81-.26.34,0,.51.39.51,1.19,0,.84-.65,1.92-1.95,3.24ZM503.99,63.55c-.84,1.02-1.6,1.54-2.18,1.54-.2,0-.81-.54-1.64-1.62-.83-1.07-1.24-1.91-1.25-2.38,0-.55.41-1.33,1.25-2.35.84-1.02,1.52-1.54,2.03-1.54.37,0,.97.55,1.8,1.55.82.99,1.29,1.75,1.29,2.25,0,.59-.43,1.47-1.3,2.54Z"/>
      <path class="cls-4" d="M522.94,65.34c-.51,1.28-1.18,1.96-2.03,1.97-.98,0-1.46,0-2.44.01-.58,0-.86.57-.86,1.71.02,4.84.03,7.27.05,12.11,0,1.22.19,2.34.57,3.34.43,1.13,1.03,1.7,1.78,1.69.27,0,.6-.12.98-.35.39-.23.7-.35.93-.35.57,0,.86.48.86,1.45,0,.46-.69,1.48-1.96,3.04-1.35,1.65-2.41,2.54-3.22,2.54-1.88.01-3.32-1.12-4.26-3.37-.79-1.91-1.19-4.4-1.21-7.43-.06-9.23-.08-13.85-.14-23.09,0-.42-.27-.99-.72-1.7-.49-.76-.72-1.42-.73-1.88,0-.63.4-1.5,1.21-2.6.84-1.14,1.66-1.72,2.44-1.73.47,0,.71,0,1.18,0,.48,0,.97.67,1.44,2.01.49,1.37.73,2.54.73,3.46,0,1.09,0,1.63.01,2.71,0,1.89.62,2.83,1.85,2.83.51,0,1.19-.39,1.93-1.15.74-.76,1.2-1.2,1.37-1.21.58,0,.87.77.87,2.33,0,1.39-.23,2.62-.65,3.66Z"/>
      <path class="cls-4" d="M545.69,90.09c-.76,1.51-1.37,2.33-1.88,2.32-.94,0-2.09-.73-3.43-2.16-1.38-1.47-2.17-2.22-2.37-2.22-.14,0-.42.38-.86,1.13-.27.46-.54.88-.81,1.26-.27.38-.54.67-.81.88-.87.71-1.9,1.07-3.08,1.07-1.11,0-2.11-.25-2.98-.76-.88-.5-1.64-1.21-2.28-2.11-.64-.9-1.13-1.99-1.47-3.24-.34-1.26-.51-2.65-.52-4.16,0-2.69.34-4.92,1.05-6.69.17-.55.92-1.84,2.13-3.85.89-1.48,2.66-3.13,5.28-4.86,2.41-1.58,4.06-2.39,4.94-2.39.54,0,1.61.83,3.2,2.47s2.38,2.81,2.38,3.48c0,.34-.1.83-.28,1.48-.19.65-.28,1.19-.29,1.61-.01,3.51-.02,5.26-.03,8.77,0,1.01.56,1.81,1.66,2.34,1.09.52,1.67.81,1.67.89,0,1.6-.46,3.19-1.23,4.72ZM537.94,73.09c0-.97-.32-1.77-.96-2.4-.64-.63-1.41-.95-2.29-.95-1.29,0-2.49,1.25-3.56,3.72-.95,2.22-1.42,4.5-1.42,6.81,0,1.81.54,3.29,1.62,4.45,1.08,1.16,2.48,1.73,4.2,1.74,1.15,0,1.87-.5,2.18-1.51.14-.38.21-1.28.21-2.71,0-3.66,0-5.49.02-9.15Z"/>
      <path class="cls-4" d="M563.9,71.62c-1.3.74-2.57,1.1-3.72,1.08-.37,0-.83-.17-1.37-.49-.54-.32-.98-.49-1.32-.49-.91-.01-1.41.91-1.49,2.76-.1,3.35-.16,5.03-.26,8.39-.04.72.02,1.43.19,2.15.16.72.36,1.08.6,1.08.34,0,.75-.09,1.24-.27.49-.18.89-.27,1.19-.27.51,0,.75.49.75,1.46,0,.55-.13.99-.36,1.32-.51.62-.77.94-1.28,1.56-1.19,1.75-2.21,2.62-3.05,2.61-1.35-.01-2.55-.76-3.62-2.24-1.04-1.44-1.55-3.21-1.54-5.31,0-.92.08-2.44.23-4.54.15-2.1.23-5.19.25-9.27,0-.13-.44-.59-1.26-1.4-.81-.79-1.21-1.42-1.21-1.84,0-.42.55-1.08,1.64-1.94,1.11-.88,1.99-1.31,2.6-1.3.81,0,1.62.6,2.43,1.73.82,1.14,1.34,1.72,1.51,1.72.24,0,.72-.56,1.39-1.69.66-1.11,1.25-1.69,1.79-1.68.27,0,.83.45,1.67,1.28.86.85,1.41,1.28,1.62,1.28.34,0,.75-.1,1.25-.33.49-.22.89-.33,1.2-.33.92.01,1.37.55,1.36,1.6-.01,1.3-.83,2.46-2.42,3.37Z"/>
      <path class="cls-4" d="M582.7,71.98c-1.31.73-2.57,1.08-3.72,1.05-.37,0-.83-.18-1.36-.5-.54-.33-.98-.49-1.31-.5-.91-.02-1.42.9-1.51,2.74-.12,3.35-.19,5.03-.31,8.38-.04.71.01,1.43.17,2.15.16.72.36,1.08.59,1.08.34,0,.75-.08,1.24-.26.49-.18.89-.26,1.19-.26.51.01.75.5.74,1.47,0,.55-.13.99-.37,1.32-.51.62-.77.93-1.29,1.55-1.2,1.74-2.22,2.6-3.06,2.59-1.35-.03-2.55-.79-3.61-2.28-1.03-1.45-1.53-3.22-1.51-5.33.01-.92.09-2.44.25-4.54.16-2.1.26-5.19.31-9.27,0-.13-.43-.6-1.25-1.41-.8-.8-1.21-1.43-1.2-1.85,0-.42.56-1.08,1.65-1.93,1.11-.87,2-1.29,2.61-1.28.81.02,1.62.62,2.42,1.75.81,1.15,1.33,1.73,1.5,1.73.24,0,.72-.56,1.4-1.67.66-1.1,1.26-1.68,1.8-1.66.27,0,.83.45,1.66,1.3.85.86,1.41,1.29,1.61,1.3.34,0,.76-.1,1.25-.32.5-.22.9-.33,1.2-.32.92.02,1.37.56,1.35,1.61-.02,1.3-.85,2.45-2.44,3.35Z"/>
      <path class="cls-4" d="M607.01,91.39c-.79,1.49-1.42,2.28-1.92,2.27-.94-.03-2.07-.79-3.39-2.26-1.35-1.51-2.13-2.28-2.33-2.28-.13,0-.43.37-.88,1.11-.28.45-.56.87-.83,1.24-.28.37-.55.66-.83.86-.89.69-1.92,1.01-3.1.98-1.11-.03-2.1-.31-2.96-.84-.87-.53-1.61-1.25-2.24-2.18-.62-.92-1.09-2.02-1.41-3.29-.32-1.27-.46-2.66-.44-4.18.04-2.69.43-4.91,1.17-6.66.18-.54.96-1.82,2.2-3.79.91-1.45,2.71-3.06,5.37-4.7,2.43-1.51,4.1-2.27,4.98-2.24.54.02,1.59.87,3.15,2.57,1.56,1.69,2.33,2.88,2.31,3.55,0,.34-.11.83-.31,1.47-.2.65-.31,1.18-.31,1.6-.08,3.51-.12,5.26-.19,8.77-.02,1.01.52,1.83,1.62,2.39,1.08.55,1.65.86,1.65.94-.04,1.6-.52,3.17-1.32,4.69ZM599.57,74.16c.02-.97-.29-1.78-.92-2.43-.63-.65-1.39-.99-2.27-1.02-1.29-.04-2.51,1.17-3.63,3.61-.99,2.19-1.5,4.46-1.54,6.77-.03,1.81.48,3.3,1.54,4.49,1.06,1.19,2.45,1.81,4.16,1.86,1.15.04,1.88-.45,2.2-1.45.14-.37.23-1.28.26-2.7.07-3.66.11-5.49.19-9.14Z"/>
      <path class="cls-4" d="M630.22,91.59c-1.75-2.34-2.58-5.34-2.47-8.95.12-3.99,1.54-7.7,4.29-11.04,2.44-2.95,4.75-4.38,6.85-4.27.51.03,1.08.75,1.71,2.17,1.14,2.46,1.76,3.8,1.85,4.01.45.7.91,1.42,1.38,2.16.47.74.69,1.28.68,1.61-.03.76-1.53,2.34-4.42,4.76-2.92,2.44-4.39,4.03-4.41,4.7-.02.63.91,1.3,2.77,2.03,1.69.67,2.94,1.03,3.71,1.08.37.02.92-.18,1.54-.61.62-.43,1.05-.7,1.29-.69.27.9.4,1.73.37,2.48-.05,1.51-1.17,2.7-3.3,3.49-1.72.63-3.31.9-4.73.83-2.96-.15-5.35-1.4-7.11-3.75ZM638.17,77.71c-.21-.39-.42-.78-.65-1.17-.95-2.11-1.78-3.18-2.49-3.22-.75-.04-1.44.57-2.09,1.79-.63,1.19-.99,2.58-1.04,4.18-.04,1.26.11,2.37.46,3.34.34.96.73,1.46,1.17,1.48.47.02,1.43-.67,2.8-2.07,1.4-1.43,2.11-2.48,2.13-3.11.01-.42-.08-.83-.29-1.21Z"/>
      <path class="cls-4" d="M680.58,95.3c-2.15,1.22-4.29,1.74-6.34,1.6-2.49-.17-4.6-1.59-6.35-4.21-1.73-2.59-2.56-5.68-2.41-9.25.09-2.18.98-4.58,2.68-7.15,1.33-2.02,2.96-3.89,4.87-5.55,1.71-1.49,2.85-2.21,3.36-2.17.47.03,1.12.54,1.92,1.53.81.99,1.58,1.51,2.33,1.56.24.02.53,0,.87-.03.34-.04.68-.08,1.03-.12.34-.04.67-.08,1-.12.32-.04.59-.05.79-.04.27.02.34.5.35,1.3.01,1.17-.61,2.38-2.03,3.28-1.38.88-2.91,1.25-4.43,1.15-.91-.06-1.9-.37-2.86-.96-.95-.58-1.64-.94-2.05-.96-.68-.05-1.28.42-1.82,1.4-.53.98-.83,2.17-.89,3.56-.12,2.79.58,5.3,2.13,7.38,1.55,2.09,3.51,3.22,5.73,3.38,1.55.11,2.84-.32,3.86-1.18,1.05-.89,1.7-1.33,1.84-1.32.27.02.38.47.34,1.35-.11,2.28-1.42,4.17-3.9,5.57Z"/>
      <path class="cls-4" d="M702.79,98.79c-1.43,2.92-3.17,5.53-5.2,7.8-1.77,1.96-2.92,2.93-3.42,2.89-.57-.04-.84-.38-.81-1.01.02-.38.64-1.28,1.8-2.7,1.47-1.8,2.62-3.65,3.46-5.48,1.26-2.93,2-6.43,2.21-10.51.18-3.44-.15-6.2-.98-8.26-.83-2.07-2.06-3.17-3.68-3.29-1.76-.14-2.71,1.33-2.86,4.39-.02.34-.05.77-.09,1.29-.04.52-.1,1.16-.17,1.91-.07.75-.13,1.4-.17,1.95-.04.54-.07.98-.09,1.32-.04.8.08,1.54.35,2.24.27.7.62,1.13,1.05,1.28.46.17.93.35,1.39.55.46.2.68.54.66,1-.01.29-.56,1.03-1.63,2.21-1.18,1.3-2.1,1.92-2.77,1.87-.57-.04-1.52-.73-2.84-2.05-1.28-1.28-1.93-2.08-1.91-2.42.22-4.62.66-11.26,1.39-19.86.36-4.3.66-7.66.86-10.05.2-2.39.31-3.81.33-4.27.02-.34-.13-.87-.44-1.61-.31-.74-.45-1.32-.43-1.74.02-.46.57-.98,1.51-1.59.98-.64,1.93-1.12,2.83-1.3-.1.03.17.08.81.13.34.03.68.73,1.03,2.1.34,1.37.48,2.78.41,4.2-.08,1.55-.33,4.01-.66,7.28-.16,1.61-.27,2.99-.38,4.08-.1,1.09-.17,1.93-.2,2.51-.05,1.01.15,1.53.59,1.56.51.04,1.44-.56,2.74-1.81,1.32-1.27,2.27-1.91,2.85-1.86,1.73.14,3.16,2.03,4.25,5.65,1.02,3.4,1.42,6.97,1.22,10.66-.19,3.61-1.19,7.26-3,10.94Z"/>
      <path class="cls-4" d="M716.79,99.22c-1.42,1.22-2.48,1.81-3.19,1.74-.47-.04-1.32-.71-2.52-1.99-1.5-1.6-2.21-3.12-2.14-4.54,0-.04.03-.2.08-.47.05-.27.13-.7.22-1.28.11-.66.21-1.35.31-2.06.11-.71.23-1.49.33-2.31.15-1.19.25-2.53.36-3.95.11-1.42.21-2.95.3-4.59,0-.17-.36-.34-.94-.58-.57-.25-.87-.79-.84-1.46.04-.8,1.61-2.16,4.71-4.09.41.03.79.24,1.14.6.35.37.66.87.91,1.5.25.63.44,1.35.57,2.14.13.79.17,1.63.12,2.51-.02.38-.21,1.91-.56,4.57-.37,2.83-.55,4.62-.6,5.32-.11,1.62-.15,2.71-.08,3.22.21,1.11.8,1.71,1.78,1.8.23.02.54-.04.92-.17.38-.13.65-.19.82-.18.34.03.48.44.44,1.24-.05.84-.77,1.85-2.15,3.03ZM715.03,71.31c-.9.93-1.69,1.37-2.27,1.32-.2-.02-.77-.62-1.54-1.78-.76-1.15-1.12-2.03-1.09-2.49.03-.54.5-1.29,1.4-2.22.9-.93,1.61-1.38,2.12-1.34.37.03.93.64,1.7,1.73.76,1.07,1.18,1.87,1.15,2.38-.03.59-.52,1.43-1.46,2.4Z"/>
      <path class="cls-4" d="M746.63,101.38c-1.33,1.25-2.38,1.84-3.06,1.78-.74-.07-1.79-.81-3.15-2.22-1.59-1.63-2.34-3.06-2.27-4.28.01-.17.05-.48.11-.94.06-.46.15-1.1.27-1.93.12-.83.22-1.56.29-2.19.07-.63.12-1.17.15-1.63.1-1.68.25-3.57.43-5.68.18-2.11.42-4.44.72-6.98.3-2.58.54-4.9.72-6.95.18-2.05.32-3.85.42-5.4.03-.42-.19-1.03-.66-1.77-.45-.72-.68-1.35-.65-1.9.03-.5.34-.91.92-1.21.58-.3,1.18-.61,1.78-.93,1.78-1.17,2.71-1.75,2.78-1.75.88.09,1.54.71,1.96,1.84.42,1.14.58,2.57.42,4.22-.15,1.57-.36,3.15-.56,4.69-.2,1.54-.38,3.09-.55,4.63-.36,3.16-.67,5.81-.89,7.91-.22,2.11-.37,3.69-.43,4.73-.04.55-.22,1.82-.55,3.8-.33,1.95-.53,3.47-.6,4.56-.02.38.02.78.13,1.22.11.43.26.83.46,1.19.2.36.42.66.68.89.26.24.5.37.74.39.23.02.53-.02.9-.13.36-.11.66-.15.9-.13.54.06.78.52.72,1.4-.03.5-.74,1.46-2.11,2.76Z"/>
      <path class="cls-4" d="M770.83,103.7c-.86,1.42-1.53,2.17-2.03,2.11-.94-.11-2.03-.95-3.27-2.52-1.27-1.62-2.01-2.44-2.21-2.46-.13-.01-.45.33-.94,1.04-.3.43-.6.82-.89,1.17-.3.35-.58.61-.87.79-.92.62-1.97.86-3.14.73-1.11-.12-2.08-.48-2.92-1.07-.84-.6-1.55-1.38-2.13-2.35-.58-.97-.99-2.1-1.25-3.39-.25-1.29-.33-2.69-.23-4.2.18-2.68.68-4.87,1.5-6.55.2-.53,1.05-1.74,2.38-3.61.99-1.38,2.86-2.84,5.6-4.27,2.51-1.31,4.21-1.94,5.09-1.85.54.06,1.55,1,3.02,2.81,1.47,1.81,2.18,3.06,2.13,3.73-.02.34-.15.82-.38,1.44-.23.63-.36,1.15-.39,1.57-.25,3.49-.38,5.24-.63,8.73-.07,1,.43,1.87,1.5,2.51,1.05.64,1.61.99,1.6,1.07-.12,1.59-.68,3.13-1.55,4.57ZM764.26,85.92c.07-.96-.2-1.8-.79-2.49-.6-.7-1.34-1.1-2.21-1.19-1.29-.14-2.57.97-3.8,3.32-1.1,2.1-1.72,4.33-1.88,6.64-.12,1.8.32,3.34,1.31,4.6,1,1.27,2.35,2,4.07,2.18,1.14.13,1.9-.3,2.27-1.27.16-.36.29-1.25.39-2.68.26-3.64.38-5.47.64-9.11Z"/>
      <path class="cls-4" d="M808.53,102.4c-.51.86-1.55,2.12-3.12,3.77-2.41,2.47-4.11,3.65-5.12,3.52-.4-.05-1.05-.64-1.89-1.76-.86-1.15-2.1-1.85-3.75-2.06-1.24-.16-2.34.04-3.2.61-.82.54-1.35.85-1.59.82-.67-.08-.98-.5-.92-1.25.09-1.21,1.19-2.36,3.27-3.46,2.12-1.12,4.16-1.57,6.11-1.32.97.12,2.08.62,3.3,1.38,1.23.76,1.94,1.14,2.04,1.15.6.08.95-.45,1.05-1.58.09-1.04-.54-2.08-1.89-3.1-.8-.61-2.32-1.43-4.49-2.48-1.95-.95-3.33-1.89-4.11-2.77-.78-.88-1.12-2.03-1-3.45.11-1.38.68-2.54,1.7-3.46.52-.48,1.05-.95,1.59-1.38.55-.44,1.09-.88,1.59-1.32.7-.61,1.42-1.27,2.15-1.91.73-.65,1.37-.93,1.91-.86.51.07,1.19.72,2.05,1.91.87,1.21,1.71,1.87,2.45,1.97.17.02.37,0,.6-.08.23-.08.47-.17.72-.29.25-.12.47-.21.66-.29.19-.08.34-.11.44-.1.3.04.44.25.41.62-.07.79-.61,1.58-1.63,2.32-1.04.75-1.98,1.07-2.79.97-1.99-.26-3.46-.67-4.4-1.24-.94-.56-1.47-.85-1.57-.87-.61-.08-.97.66-1.1,2.21-.02.21.56.7,1.72,1.49,1.23.83,2.22,1.39,2.98,1.65,4.69,1.79,6.88,4.52,6.57,8.16-.08.92-.33,1.76-.77,2.5Z"/>
      <path class="cls-4" d="M833.11,111.4c-1.62,1.42-2.62,2.1-2.99,2.05-.6-.09-1.47-1.02-2.45-2.76-.97-1.73-1.73-2.72-2.3-2.8-.57-.08-1.72.62-3.45,2.12-1.73,1.49-2.86,2.21-3.39,2.13-.94-.13-2.18-1.11-3.72-2.86-1.19-1.35-1.72-3.11-1.53-5.28.42-4.89.63-7.34,1.04-12.23.07-.84-.25-1.66-.86-2.46-.62-.81-.91-1.39-.88-1.64.03-.38.24-.73.63-1.06.39-.33.82-.63,1.18-.92.48-.39.99-.86,1.52-1.25.53-.39,1.05-.56,1.55-.49.95.13,1.68,1.05,2.23,2.72.55,1.68.78,3.34.64,4.98-.4,4.54-.59,6.81-.99,11.35-.07.84.17,1.57.73,2.19.56.63,1.14.98,1.74,1.07.6.08,1.41-.31,2.35-1.19.93-.87,1.44-1.89,1.54-3.02.51-5.77.77-8.65,1.29-14.42.13-1.42,1.36-1.97,3.69-1.64,1.69.24,2.47,1.01,2.36,2.3-.03.38-.13.85-.28,1.42-.15.57-.25,1.04-.28,1.42-.42,4.59-.63,6.88-1.04,11.47-.25,2.72.28,4.17,1.59,4.36.34.05.72.04,1.15-.02.43-.06.8-.07,1.1-.03.37.05.52.5.44,1.33-.06.67-.93,1.73-2.59,3.18Z"/>
      <path class="cls-4" d="M855.84,108.97c-.16.27-.49.69-.99,1.24-.5.56-1.17,1.3-2.01,2.23-.54.6-1.06,1.18-1.57,1.76-.52.58-1.04,1.17-1.57,1.76-.97.87-1.89,1.24-2.76,1.1-2.61-.4-4.86-2.36-6.73-5.9-1.76-3.34-2.48-6.76-2.16-10.23.31-3.38,2.05-6.7,5.22-9.84,2.83-2.79,5.04-4.07,6.53-3.85,1.59.24,3.27,1.56,5.01,3.94,2.39,3.27,3.32,7.49,2.81,12.58-.2,2.04-.8,3.77-1.79,5.19ZM850.78,96.88c-1.8-2.21-3.34-3.43-4.63-3.62-.4-.06-.81.05-1.21.33-.4.28-.78.7-1.12,1.26-.34.56-.64,1.23-.88,2-.24.77-.41,1.59-.49,2.47-.24,2.59.38,5.01,1.88,7.2,1.48,2.17,3.41,3.44,5.76,3.8.87.13,1.63-.32,2.28-1.37.65-1.04,1.06-2.44,1.23-4.2.26-2.63-.69-5.26-2.82-7.87Z"/>
      <path class="cls-4" d="M879.97,120.28c-.98.92-2.23,1.25-3.73,1-1.87-.31-3.2-1.61-3.98-3.9-.68-1.98-.88-4.32-.6-7.03.26-2.54.69-4.66,1.27-6.34.37-.96.55-1.44.92-2.39.03-.33-.06-.61-.3-.84-.23-.23-.48-.45-.73-.66-1.18-1.17-1.9-1.77-2.17-1.82-.3-.05-.88.47-1.74,1.5-.87,1.04-1.36,1.77-1.4,2.19-.6,5.91-.9,8.86-1.5,14.77-.08.79-.22,1.35-.42,1.65-.26.38-.88.49-1.82.34-.92-.15-1.38-.22-2.31-.37-1.03-.29-1.5-.83-1.42-1.62.7-7.03,1.06-10.55,1.76-17.59.05-.46-.27-1.01-.81-1.65-.58-.68-.83-1.44-.76-2.15.07-.71.64-1.64,1.71-2.78,1.11-1.18,1.97-1.72,2.58-1.63.64.1,1.35,1.06,2.12,2.88.77,1.82,1.31,2.75,1.62,2.8.03,0,.81-.78,2.35-2.36,1.53-1.57,2.65-2.3,3.36-2.19.37.06,1.45.94,3.22,2.63.44.41.88.81,1.34,1.21.45.39.87.78,1.24,1.16.37.38.67.75.89,1.1.22.35.32.66.29.91,0,.04-.57,1.08-1.71,3.09-1.12,1.97-1.81,4.03-2.03,6.15-.18,1.67-.09,3.08.25,4.24.34,1.16.86,1.8,1.56,1.92.23.04.61-.08,1.14-.35.52-.27.95-.38,1.29-.32.33.06.5.3.49.72-.07.68-.11,1.01-.18,1.69-.19,1.79-.78,3.15-1.76,4.06Z"/>
      <path class="cls-4" d="M889.32,95.23c-.51-.09-2.83-1.63-6.97-4.62-.71-.46-1.39-.91-2.05-1.36-.66-.45-.97-.78-.95-.99.1-.96.38-1.98.84-3.04.49-1.14.9-1.7,1.21-1.64.37.06,2.39,1.71,6.02,4.96,2.39,2.1,3.56,3.32,3.52,3.66-.24,2.17-.77,3.18-1.62,3.03ZM901.9,116.66c-.17.27-.5.68-1.01,1.22-.51.55-1.18,1.28-2.04,2.19-.54.58-1.08,1.16-1.6,1.72-.52.57-1.06,1.14-1.6,1.72-.98.85-1.9,1.2-2.77,1.04-2.6-.45-4.83-2.47-6.65-6.05-1.72-3.38-2.39-6.81-2.02-10.27.36-3.38,2.15-6.66,5.36-9.72,2.87-2.73,5.1-3.96,6.58-3.7,1.58.28,3.25,1.63,4.96,4.06,2.34,3.33,3.21,7.56,2.64,12.64-.23,2.04-.85,3.76-1.86,5.15ZM897,104.46c-1.77-2.25-3.3-3.51-4.58-3.73-.4-.07-.81.03-1.22.3-.41.27-.79.68-1.14,1.24-.35.56-.65,1.21-.91,1.98-.25.76-.43,1.58-.52,2.46-.28,2.58.31,5.01,1.78,7.24,1.45,2.2,3.37,3.51,5.71,3.92.87.15,1.64-.29,2.3-1.32.66-1.03,1.09-2.42,1.29-4.17.29-2.62-.62-5.27-2.71-7.93Z"/>
    </g>
  </g>
</svg>